<svg xmlns="http://www.w3.org/2000/svg" width="28.736" height="12.326" viewBox="0 0 28.736 12.326">
  <g id="Group_636" data-name="Group 636" transform="translate(-1060.834 -626.381)">
    <path id="Path_1803" data-name="Path 1803" d="M11.328,5.663A5.664,5.664,0,1,1,5.665,0a5.662,5.662,0,0,1,5.663,5.663" transform="translate(1069.538 626.881)" fill="none" stroke="#043468" stroke-width="1"/>
    <path id="Path_1804" data-name="Path 1804" d="M8.536,4.267A4.268,4.268,0,1,1,4.269,0,4.267,4.267,0,0,1,8.536,4.267" transform="translate(1070.934 628.277)" fill="#043468"/>
    <path id="Path_1805" data-name="Path 1805" d="M694.6,347.3l-5.925-4.443v2.962H685.71v2.962h2.962v2.962Z" transform="translate(394.973 285.24)" fill="#043468"/>
    <path id="Path_1806" data-name="Path 1806" d="M0,347.294l5.925,4.443v-2.962H8.887v-2.962H5.925V342.85Z" transform="translate(1060.834 285.25)" fill="#043468"/>
  </g>
</svg>
