<svg xmlns="http://www.w3.org/2000/svg" width="24.566" height="25.257" viewBox="0 0 24.566 25.257">
  <path id="Path_1815" data-name="Path 1815" d="M749.662,845.715c.043-.081.089-.162.137-.243a6.962,6.962,0,0,1,.667-.959,7.986,7.986,0,0,1,1.864-1.621,12.58,12.58,0,0,1,2.25-1.1c.773-.3,1.561-.538,2.336-.772s1.545-.444,2.286-.679,1.463-.472,2.144-.739a18.277,18.277,0,0,0,1.914-.872,15.083,15.083,0,0,0,1.606-.988,13.989,13.989,0,0,0,1.257-1l.258-.235c.08-.08.158-.156.232-.229.153-.143.282-.286.405-.41.237-.255.417-.46.54-.606l.188-.22a.071.071,0,0,1,.116.08s-.05.088-.141.254-.236.405-.428.708a11.488,11.488,0,0,1-.765,1.044,12.876,12.876,0,0,1-1.151,1.238,13.661,13.661,0,0,1-1.566,1.264,17,17,0,0,1-1.929,1.153c-.693.353-1.424.681-2.172.982s-1.508.585-2.257.862-1.482.563-2.172.867a11.74,11.74,0,0,0-1.877,1.025q-.237.167-.453.344l-.246.151a8.022,8.022,0,0,0-1.864,1.622,6.948,6.948,0,0,0-.666.958,7.822,7.822,0,0,0-.48.97,9.2,9.2,0,0,0-.519,1.771,13.121,13.121,0,0,0-.181,1.372c-.026.378-.04.674-.042.875,0,.1,0,.177,0,.23,0,.013-.008.024.008.034a2.6,2.6,0,0,0,.327.025l.215.008.242.006.195.005h.139l.2-.005.243-.005.215-.008a2.988,2.988,0,0,0,.328-.021c.017-.008.005-.018.008-.03l0-.2c0-.177.01-.432.03-.756a10.948,10.948,0,0,1,.141-1.143,8.263,8.263,0,0,1,.381-1.389,5.866,5.866,0,0,1,.338-.722c.008-.016.018-.032.027-.048,19.675,6.317,21.531-20.929,21.531-20.929C771.091,835.176,750.586,830.055,749.662,845.715Z" transform="translate(-748.948 -827.632)" fill="#043468"/>
</svg>
