<svg xmlns="http://www.w3.org/2000/svg" width="21.425" height="17.856" viewBox="0 0 21.425 17.856">
  <path id="Path_1817" data-name="Path 1817" d="M683.02,829.984a.881.881,0,0,1,.645.261.848.848,0,0,1,.261.622v6.255a.834.834,0,0,1-.261.634.9.9,0,0,1-.645.249H675a.906.906,0,0,1-.645-.249.842.842,0,0,1-.261-.634v-6.255a.857.857,0,0,1,.261-.622.886.886,0,0,1,.645-.261Zm0,9.81a.895.895,0,0,1,.906.909v6.229a.9.9,0,0,1-.906.909H675a.9.9,0,0,1-.906-.909V840.7a.895.895,0,0,1,.906-.909Zm11.612-9.81a.9.9,0,0,1,.885.883v6.255a.834.834,0,0,1-.264.634.869.869,0,0,1-.621.249h-8.043a.856.856,0,0,1-.885-.883v-6.255a.868.868,0,0,1,.251-.622.842.842,0,0,1,.634-.261Zm0,9.81a.844.844,0,0,1,.621.263.87.87,0,0,1,.264.646v6.229a.869.869,0,0,1-.264.645.842.842,0,0,1-.621.264h-8.043a.833.833,0,0,1-.634-.264.89.89,0,0,1-.251-.645V840.7a.891.891,0,0,1,.251-.646.835.835,0,0,1,.634-.263Z" transform="translate(-674.092 -829.984)" fill="#043468"/>
</svg>
