<svg xmlns="http://www.w3.org/2000/svg" width="19.049" height="18.998" viewBox="0 0 19.049 18.998">
  <path id="Fill_106" data-name="Fill 106" d="M17.337,19H1.718a1.69,1.69,0,0,1-.859-.231,1.631,1.631,0,0,1-.639-.66,1.584,1.584,0,0,1,.086-1.743L6.694,6.431V1.9H5.728a.893.893,0,0,1-.674-.277A.958.958,0,0,1,4.787.941a.927.927,0,0,1,.266-.66A.886.886,0,0,1,5.728,0h7.6a.935.935,0,0,1,.687.281.9.9,0,0,1,.28.66.93.93,0,0,1-.28.687.942.942,0,0,1-.687.277h-.94V6.456l6.363,9.907a1.618,1.618,0,0,1,.086,1.743,1.542,1.542,0,0,1-.63.66A1.737,1.737,0,0,1,17.337,19ZM8.588,1.9V6.987l-3.9,6.086h9.677L10.493,7.013V1.9Z" fill="#6189a9"/>
</svg>
