<svg xmlns="http://www.w3.org/2000/svg" width="28.35" height="20.686" viewBox="0 0 28.35 20.686">
  <path id="Subtraction_2" data-name="Subtraction 2" d="M16.715,20.686v0L13.945,16.9,10.8,20.317l-.462-3.786L4.525,20.224l2.216-5.91L2.863,15.33l2.586-3.047L0,10.25l6.741-.923L2.124,3.786,9.419,6V0L13.3,4.987l1.293-3.971L15.791,6,22.348.923,20.224,6.279l4.525-1.292-2.678,4.34,6.279,2.586L20.777,13.3l3.6,5.634-6.187-2.309-1.477,4.062ZM14.3,7.186a3.5,3.5,0,1,0,3.5,3.5A3.5,3.5,0,0,0,14.3,7.186Z" fill="#6189a9"/>
</svg>
