<svg xmlns="http://www.w3.org/2000/svg" width="20.501" height="26.266" viewBox="0 0 20.501 26.266">
  <path id="noun-reflect-4381189-FFFFFF" d="M155.374,35.975V55.91c0,.388-1.4.388-1.4,0V35.975c0-.388,1.4-.388,1.4,0Zm-10.826,3.992V51.919c.14.069,8.131-5.666,8.131-5.976C152.679,45.943,144.885,39.8,144.548,39.966Zm20.248,0c-.337-.167-8.131,5.666-8.131,5.977s7.992,6.045,8.131,5.976c.337-.167.337-11.785,0-11.953Zm-14.528-6.347a5.007,5.007,0,0,1,4.4-2.28,5.275,5.275,0,0,1,3.949,1.643c-1.4.782-1.4,1.052-1.215,1.162l3.906,1.966.312-4.327c0-.216-.229-.354-1.756.5a6.632,6.632,0,0,0-5.2-2.349,6.421,6.421,0,0,0-5.63,3C148.853,33.271,150.078,33.957,150.268,33.619Z" transform="translate(-144.548 -29.935)" fill="#6189a9"/>
</svg>
