<svg xmlns="http://www.w3.org/2000/svg" width="20.797" height="20.797" viewBox="0 0 20.797 20.797">
  <path id="noun_palette_1918496" d="M11.4,1a10.4,10.4,0,0,0,0,20.8h1.486a1.486,1.486,0,0,0,0-2.971,1.486,1.486,0,0,1,0-2.971h4.457A4.456,4.456,0,0,0,21.8,11.4,10.4,10.4,0,0,0,11.4,1ZM5.457,11.4A1.486,1.486,0,1,1,6.942,9.913,1.486,1.486,0,0,1,5.457,11.4ZM8.428,6.942A1.486,1.486,0,1,1,9.913,5.457,1.486,1.486,0,0,1,8.428,6.942Zm5.942,0a1.486,1.486,0,1,1,1.486-1.486A1.486,1.486,0,0,1,14.37,6.942ZM17.341,11.4a1.486,1.486,0,1,1,1.486-1.486A1.486,1.486,0,0,1,17.341,11.4Z" transform="translate(-1 -1)" fill="#6189a9"/>
</svg>
