<svg xmlns="http://www.w3.org/2000/svg" width="26.482" height="24.862" viewBox="0 0 26.482 24.862">
  <g id="Swap_Bases" data-name="Swap Bases" transform="translate(-532.548 -931.137)">
    <g id="Group_33" data-name="Group 33" transform="translate(532.548 939.932)">
      <circle id="Ellipse_2" data-name="Ellipse 2" cx="3.636" cy="3.636" r="3.636" transform="translate(0)" fill="#6189a9"/>
      <circle id="Ellipse_3" data-name="Ellipse 3" cx="3.636" cy="3.636" r="3.636" transform="translate(19.21)" fill="#6189a9"/>
    </g>
    <path id="Path_973" data-name="Path 973" d="M1138.654,827.725a7.529,7.529,0,0,0-12.121,3.322l1.7.561a5.731,5.731,0,0,1,9.145-2.6l-2.6,2.6h6.471v-6.471Z" transform="translate(-588.098 106)" fill="#6189a9"/>
    <path id="Path_974" data-name="Path 974" d="sM1129.121,853.968a7.529,7.529,0,0,0,12.121-3.322l-1.7-.561a5.731,5.731,0,0,1-9.145,2.6l2.6-2.6h-6.47v6.471Z" transform="translate(-588.098 99.443)" fill="#6189a9"/>
  </g>
</svg>
