<svg xmlns="http://www.w3.org/2000/svg" width="23.22" height="23.22" viewBox="0 0 23.22 23.22">
  <path id="noun-grid-4038272-FFFFFF" d="M130.362,114.286a1.786,1.786,0,0,1,1.786-1.786h1.786a1.786,1.786,0,0,1,1.786,1.786v1.786a1.786,1.786,0,0,1-1.786,1.786v12.5a1.786,1.786,0,0,1,1.786,1.786v1.786a1.786,1.786,0,0,1-1.786,1.786h-1.786a1.786,1.786,0,0,1-1.786-1.786h-12.5a1.786,1.786,0,0,1-1.786,1.786h-1.786a1.786,1.786,0,0,1-1.786-1.786v-1.786a1.786,1.786,0,0,1,1.786-1.786v-12.5a1.786,1.786,0,0,1-1.786-1.786v-1.786a1.786,1.786,0,0,1,1.786-1.786h1.786a1.786,1.786,0,0,1,1.786,1.786Zm1.786,19.648h1.786v-1.786h-1.786Zm-17.862,0h1.786v-1.786h-1.786Zm3.572-1.786h5.359V125h-7.145v5.359A1.786,1.786,0,0,1,117.859,132.148Zm14.29-1.786V125H125v7.145h5.359A1.786,1.786,0,0,1,132.148,130.362Zm-16.076-12.5v5.359h7.145v-7.145h-5.359A1.786,1.786,0,0,1,116.072,117.859Zm14.29-1.786H125v7.145h7.145v-5.359A1.786,1.786,0,0,1,130.362,116.072Zm1.786,0h1.786v-1.786h-1.786Zm-17.862,0h1.786v-1.786h-1.786Z" transform="translate(-112.5 -112.5)" fill="#6189a9" fill-rule="evenodd"/>
</svg>
