<svg id="Group_646" data-name="Group 646" xmlns="http://www.w3.org/2000/svg" width="21.768" height="21.768" viewBox="0 0 21.768 21.768">
  <path id="Path_976" data-name="Path 976" d="M817.062,851.339a10.884,10.884,0,1,1,10.883-10.884A10.9,10.9,0,0,1,817.062,851.339Zm0-20.291a9.407,9.407,0,1,0,9.408,9.407A9.419,9.419,0,0,0,817.062,831.048Z" transform="translate(-806.178 -829.571)" fill="#6189a9"/>
  <path id="Path_977" data-name="Path 977" d="M817.8,848.425a7.231,7.231,0,1,1,7.231-7.231A7.239,7.239,0,0,1,817.8,848.425Zm0-12.984a5.754,5.754,0,1,0,5.755,5.754A5.762,5.762,0,0,0,817.8,835.441Z" transform="translate(-806.917 -830.31)" fill="#6189a9"/>
  <circle id="Ellipse_4" data-name="Ellipse 4" cx="2.841" cy="2.841" r="2.841" transform="translate(8.043 8.043)" fill="#6189a9"/>
</svg>
