<svg id="Group_645" data-name="Group 645" xmlns="http://www.w3.org/2000/svg" xmlns:xlink="http://www.w3.org/1999/xlink" width="28.548" height="24.024" viewBox="0 0 28.548 24.024">
  <defs>
    <clipPath id="clip-path">
      <rect id="Rectangle_427" data-name="Rectangle 427" width="28.548" height="24.024" fill="#eff7fa"/>
    </clipPath>
  </defs>
  <path id="Path_1813" data-name="Path 1813" d="M50.967,51.281v4.143H47.9L52.5,60.542l4.607-5.118H54.038V51.281Z" transform="translate(-38.228 -39.334)" fill="#eff7fa"/>
  <rect id="Rectangle_426" data-name="Rectangle 426" width="12.285" height="1.536" transform="translate(8.132 22.488)" fill="#eff7fa"/>
  <g id="Group_644" data-name="Group 644">
    <g id="Group_643" data-name="Group 643" clip-path="url(#clip-path)">
      <path id="Path_1814" data-name="Path 1814" d="M25.569,0H2.979A2.979,2.979,0,0,0,0,2.979V8.542a2.979,2.979,0,0,0,2.979,2.979H25.569a2.979,2.979,0,0,0,2.979-2.979V2.979A2.979,2.979,0,0,0,25.569,0M6.969,9.083H5.407V6.323H3.657v2.76H2.091V2.438H3.657V4.813H5.407V2.438H6.969Zm4.769,0L10.064,6.671V9.083H8.5V2.438h1.562V4.277l1.448-1.839H13.4l-2.34,2.991,2.529,3.655Zm8.478,0H18.794l-1.026-3.6-1.007,3.6H15.35l-1.5-6.645h1.538l.787,3.479.973-3.479h1.262l.988,3.481.781-3.481h1.538Zm5.651-.394a2.13,2.13,0,0,1-1.517.553,2.258,2.258,0,0,1-1.268-.358,2.785,2.785,0,0,1-.915-1.1l-.073-.145,1.3-.786.088.161c.268.493.568.743.892.743a.6.6,0,0,0,.4-.138.361.361,0,0,0,.149-.282.544.544,0,0,0-.124-.324,4.256,4.256,0,0,0-.669-.623,7.119,7.119,0,0,1-1.364-1.334,1.824,1.824,0,0,1-.329-1.006A1.663,1.663,0,0,1,23,2.8,1.909,1.909,0,0,1,24.35,2.28a2.125,2.125,0,0,1,.977.238,3.45,3.45,0,0,1,.976.838l.113.131L25.254,4.512l-.113-.157c-.275-.383-.548-.577-.809-.577a.406.406,0,0,0-.273.085.192.192,0,0,0-.088.15.315.315,0,0,0,.071.194,7.607,7.607,0,0,0,.852.781c.465.389.742.63.844.735a2.691,2.691,0,0,1,.55.754,1.94,1.94,0,0,1,.168.806,1.86,1.86,0,0,1-.591,1.407" fill="#eff7fa"/>
    </g>
  </g>
</svg>
