<svg id="Group_642" data-name="Group 642" xmlns="http://www.w3.org/2000/svg" xmlns:xlink="http://www.w3.org/1999/xlink" width="28.548" height="24.024" viewBox="0 0 28.548 24.024">
  <defs>
    <clipPath id="clip-path">
      <rect id="Rectangle_425" data-name="Rectangle 425" width="28.548" height="24.024" fill="#eff7fa"/>
    </clipPath>
  </defs>
  <path id="Path_1811" data-name="Path 1811" d="M50.967,51.281v4.143H47.9L52.5,60.542l4.607-5.118H54.038V51.281Z" transform="translate(-38.228 -39.334)" fill="#eff7fa"/>
  <rect id="Rectangle_424" data-name="Rectangle 424" width="12.285" height="1.536" transform="translate(8.132 22.488)" fill="#eff7fa"/>
  <g id="Group_641" data-name="Group 641">
    <g id="Group_640" data-name="Group 640" clip-path="url(#clip-path)">
      <path id="Path_1812" data-name="Path 1812" d="M25.569,0H2.979A2.979,2.979,0,0,0,0,2.979V8.542a2.979,2.979,0,0,0,2.979,2.979H25.569a2.979,2.979,0,0,0,2.98-2.979V2.979A2.979,2.979,0,0,0,25.569,0M8.657,8.689a2.13,2.13,0,0,1-1.517.553,2.258,2.258,0,0,1-1.268-.358,2.785,2.785,0,0,1-.915-1.1l-.073-.145,1.3-.786.088.161c.268.493.568.743.892.743a.6.6,0,0,0,.4-.138.361.361,0,0,0,.149-.282A.544.544,0,0,0,7.6,7.01a4.256,4.256,0,0,0-.669-.623A7.119,7.119,0,0,1,5.563,5.053a1.824,1.824,0,0,1-.329-1.006A1.663,1.663,0,0,1,5.788,2.8,1.908,1.908,0,0,1,7.14,2.28a2.125,2.125,0,0,1,.977.238,3.45,3.45,0,0,1,.976.838l.113.131L8.044,4.512l-.113-.157c-.275-.383-.548-.577-.809-.577a.406.406,0,0,0-.273.085.192.192,0,0,0-.088.15.315.315,0,0,0,.071.194,7.607,7.607,0,0,0,.852.781c.465.389.742.63.844.735a2.691,2.691,0,0,1,.55.754,1.941,1.941,0,0,1,.168.806,1.86,1.86,0,0,1-.591,1.407m5.027.394h-1.4L9.928,2.438h1.6l1.461,4.125,1.482-4.125h1.6Zm9.528-1.448a3.177,3.177,0,0,1-1.173,1.194,3.344,3.344,0,0,1-1.683.413,3.733,3.733,0,0,1-1.833-.448,3.3,3.3,0,0,1-1.283-1.28,3.572,3.572,0,0,1-.47-1.785,3.342,3.342,0,0,1,.87-2.291A3.438,3.438,0,0,1,20.322,2.28a4.077,4.077,0,0,1,1.6.318,3.71,3.71,0,0,1,1.241.924l.115.124-1.092,1.08-.123-.13a2.307,2.307,0,0,0-1.74-.792,1.948,1.948,0,0,0-1.434.566,1.837,1.837,0,0,0-.575,1.373,1.888,1.888,0,0,0,.6,1.419,2.028,2.028,0,0,0,1.484.584,1.81,1.81,0,0,0,.956-.235,1.522,1.522,0,0,0,.484-.492h-1.7V5.541H23.65l.014.441a3.27,3.27,0,0,1-.452,1.654" fill="#eff7fa"/>
    </g>
  </g>
</svg>
