<svg id="Folding_Engine" data-name="Folding Engine" xmlns="http://www.w3.org/2000/svg" width="30.639" height="27.652" viewBox="0 0 30.639 27.652">
  <path id="Path_1601" data-name="Path 1601" d="M13.208,44.372A4.378,4.378,0,0,1,12.4,43L7.961,45.557a3.873,3.873,0,0,0-5.018-.947,3.917,3.917,0,1,0,3.929,6.778,3.854,3.854,0,0,0,1.8-4.4Z" transform="translate(-0.989 -24.266)" fill="#eff7fa"/>
  <path id="Path_1602" data-name="Path 1602" d="M28.787,47.964a3.819,3.819,0,0,1-2.178-.664L25,48.247a5.61,5.61,0,0,0,7.575,0l-1.61-.947A3.819,3.819,0,0,1,28.787,47.964Z" transform="translate(-13.463 -26.586)" fill="#eff7fa"/>
  <path id="Path_1603" data-name="Path 1603" d="M36.7,30.893A3.973,3.973,0,0,1,38.878,34.4v.234l1.61.947a4.772,4.772,0,0,0,.143-1.183A5.717,5.717,0,0,0,36.7,29Z" transform="translate(-19.577 -17.027)" fill="#eff7fa"/>
  <path id="Path_1604" data-name="Path 1604" d="M29.682,34.2a2.971,2.971,0,1,0,2.112.87A2.982,2.982,0,0,0,29.682,34.2Z" transform="translate(-14.359 -19.736)" fill="#eff7fa"/>
  <path id="Path_1605" data-name="Path 1605" d="M22.851,34.633V34.4a3.973,3.973,0,0,1,2.178-3.506V29A5.717,5.717,0,0,0,21.1,34.4a4.77,4.77,0,0,0,.143,1.183Z" transform="translate(-11.457 -17.027)" fill="#eff7fa"/>
  <path id="Path_1606" data-name="Path 1606" d="M27.826,11.87v5.586a4.171,4.171,0,0,1,.8-.1,4.675,4.675,0,0,1,.8.1V11.87a3.929,3.929,0,1,0-1.61,0Z" transform="translate(-13.307 -4.096)" fill="#eff7fa"/>
  <path id="Path_1607" data-name="Path 1607" d="M49.422,44.61a3.927,3.927,0,0,0-5.018.947L39.9,43a3.632,3.632,0,0,1-.8,1.372l4.546,2.651a3.915,3.915,0,1,0,5.776-2.414Z" transform="translate(-20.717 -24.266)" fill="#eff7fa"/>
</svg>
