<svg xmlns="http://www.w3.org/2000/svg" xmlns:xlink="http://www.w3.org/1999/xlink" width="30.001" height="21" viewBox="0 0 30.001 21">
  <defs>
    <clipPath id="clip-path">
      <rect id="Rectangle_439" data-name="Rectangle 439" width="8.274" height="5.281" transform="translate(0 0)" fill="none"/>
    </clipPath>
  </defs>
  <g id="Group_671" data-name="Group 671" transform="translate(-530 -68)">
    <g id="Screen_Regions" data-name="Screen Regions" transform="translate(-211 -950)">
      <path id="Subtraction_7" data-name="Subtraction 7" d="M243,976H217a2,2,0,0,1-2-2V957a2,2,0,0,1,2-2h26a2,2,0,0,1,2,2v17A2,2,0,0,1,243,976Zm-10-18a1,1,0,0,0-1,1v8a1,1,0,0,0,1,1h9a1,1,0,0,0,1-1v-8a1,1,0,0,0-1-1Z" transform="translate(526 63)" fill="#eff7fa"/>
    </g>
    <g id="Group_670" data-name="Group 670" transform="translate(548.45 73.3)">
      <g id="Group_670-2" data-name="Group 670" clip-path="url(#clip-path)">
        <path id="Path_1842" data-name="Path 1842" d="M1.121,1.367H.2a1.534,1.534,0,0,1,.4-.9A1.54,1.54,0,0,1,1.753,0,1.458,1.458,0,0,1,2.79.392a1.242,1.242,0,0,1,.419.934,1.078,1.078,0,0,1-.183.611,1.308,1.308,0,0,1-.531.449,1.352,1.352,0,0,1,.716.476,1.29,1.29,0,0,1,.258.8,1.513,1.513,0,0,1-.5,1.146A1.777,1.777,0,0,1,1.7,5.281,1.65,1.65,0,0,1,.506,4.838,1.736,1.736,0,0,1,0,3.633H.946a.959.959,0,0,0,.272.58A.765.765,0,0,0,1.75,4.4a.764.764,0,0,0,.555-.215.723.723,0,0,0-.077-1.1A1.386,1.386,0,0,0,1.37,2.84V2.019a1.518,1.518,0,0,0,.515-.107.635.635,0,0,0,.262-.221.514.514,0,0,0,.1-.3A.446.446,0,0,0,2.1,1.055.529.529,0,0,0,1.723.92a.611.611,0,0,0-.373.124.622.622,0,0,0-.229.323" fill="#b0d5e3"/>
        <path id="Path_1843" data-name="Path 1843" d="M4.289.127H5.423A3.715,3.715,0,0,1,7.051.4a2.107,2.107,0,0,1,.878.882,2.856,2.856,0,0,1,.345,1.43,2.881,2.881,0,0,1-.192,1.067,2.218,2.218,0,0,1-.533.809,1.887,1.887,0,0,1-.736.444,5.239,5.239,0,0,1-1.373.123H4.289Zm.95.922V4.221h.444a2.212,2.212,0,0,0,.952-.151,1.125,1.125,0,0,0,.484-.505,1.854,1.854,0,0,0,.188-.876,1.664,1.664,0,0,0-.448-1.243,1.794,1.794,0,0,0-1.3-.4Z" fill="#b0d5e3"/>
      </g>
    </g>
  </g>
</svg>
