<svg xmlns="http://www.w3.org/2000/svg" width="14.909" height="20.492" viewBox="0 0 14.909 20.492">
  <path id="noun-lock-1061278-FFFFFF" d="M177.422,8.585h-.647V5.836a5.858,5.858,0,0,0-11.717,0l.005,2.749h-.653a.949.949,0,0,0-.948.949v10a.949.949,0,0,0,.948.949h13.011a.95.95,0,0,0,.95-.949v-10a.95.95,0,0,0-.95-.949Zm-5.124,8.9h-2.762l.563-3.465a1.432,1.432,0,1,1,1.633,0Zm-5.116-8.9,0-2.749a3.738,3.738,0,0,1,7.477,0V8.585Z" transform="translate(-163.462 0.01)" fill="#eff7fa" fill-rule="evenodd"/>
</svg>
