<svg xmlns="http://www.w3.org/2000/svg" width="27.724" height="27.723" viewBox="0 0 27.724 27.723">
  <g id="noun_glue_2779339" transform="translate(-90.87 -90.88)">
    <path id="Path_1622" data-name="Path 1622" d="M94.068,109.394l11.109-14.708,2.5,2.5-7.169,7.169,1.534,1.534,7.169-7.169,5.577,5.576-14.708,11.109ZM106.5,92.938l1.554-2.058,10.543,10.542-2.058,1.555-5.791-5.791-1.534-1.534L106.5,92.938ZM92.721,117.713a15.761,15.761,0,0,1-1.851.89,15.76,15.76,0,0,1,.89-1.851c.583-1.045,1.441-2.331,1.441-2.331l1.851,1.851S93.766,117.13,92.721,117.713Zm6.444-1.392-2.288.5L92.651,112.6l.5-2.287Z" transform="translate(0 0)" fill="#eff7fa" fill-rule="evenodd"/>
  </g>
</svg>
