<svg id="Group_666" data-name="Group 666" xmlns="http://www.w3.org/2000/svg" xmlns:xlink="http://www.w3.org/1999/xlink" width="33.526" height="18.512" viewBox="0 0 33.526 18.512">
  <defs>
    <clipPath id="clip-path">
      <rect id="Rectangle_436" data-name="Rectangle 436" width="33.526" height="18.512" transform="translate(0 0)" fill="none"/>
    </clipPath>
  </defs>
  <g id="Group_665" data-name="Group 665" clip-path="url(#clip-path)">
    <path id="Path_1832" data-name="Path 1832" d="M14.247,10.08A4.374,4.374,0,1,1,9.872,5.707h0a4.373,4.373,0,0,1,4.373,4.373" fill="none" stroke="#eff7fa" stroke-width="1"/>
    <path id="Path_1833" data-name="Path 1833" d="M13.169,10.085a3.3,3.3,0,1,1-3.3-3.3h.008a3.3,3.3,0,0,1,3.3,3.29v.01" fill="#eff7fa"/>
    <path id="Path_1834" data-name="Path 1834" d="M25.831,10.08a4.374,4.374,0,1,1-4.375-4.373h0a4.373,4.373,0,0,1,4.373,4.373" fill="none" stroke="#eff7fa" stroke-width="1"/>
    <path id="Path_1835" data-name="Path 1835" d="M24.753,10.085a3.3,3.3,0,1,1-3.3-3.3h.008a3.3,3.3,0,0,1,3.3,3.29v.01" fill="#eff7fa"/>
    <path id="Path_1836" data-name="Path 1836" d="M32.119,2.819a1.243,1.243,0,1,1-1.243-1.243,1.242,1.242,0,0,1,1.243,1.243M35.862,3a6.039,6.039,0,0,1-8.394,1.578A6.025,6.025,0,0,1,25.889,3a.328.328,0,0,1,0-.372,6.04,6.04,0,0,1,9.973,0,.328.328,0,0,1,0,.372M32.7,2.819a1.824,1.824,0,1,0-1.824,1.824A1.824,1.824,0,0,0,32.7,2.819h0Z" transform="translate(-2.393)" fill="#eff7fa"/>
    <line id="Line_2" data-name="Line 2" x1="0.5" transform="translate(24.457 2.15)" fill="none" stroke="#eff7fa" stroke-miterlimit="10" stroke-width="1"/>
    <line id="Line_3" data-name="Line 3" x1="21.927" transform="translate(1.51 2.15)" fill="none" stroke="#eff7fa" stroke-miterlimit="10" stroke-width="1" stroke-dasharray="1.02 1.02"/>
    <path id="Path_1837" data-name="Path 1837" d="M1,2.15H.5v.5" fill="none" stroke="#eff7fa" stroke-miterlimit="10" stroke-width="1"/>
    <line id="Line_4" data-name="Line 4" y2="13.376" transform="translate(0.5 3.641)" fill="none" stroke="#eff7fa" stroke-miterlimit="10" stroke-width="1" stroke-dasharray="0.991 0.991"/>
    <path id="Path_1838" data-name="Path 1838" d="M.5,17.512v.5H1" fill="none" stroke="#eff7fa" stroke-miterlimit="10" stroke-width="1"/>
    <line id="Line_5" data-name="Line 5" x2="27.813" transform="translate(2.011 18.012)" fill="none" stroke="#eff7fa" stroke-miterlimit="10" stroke-width="1" stroke-dasharray="1.011 1.011"/>
    <path id="Path_1839" data-name="Path 1839" d="M30.33,18.012h.5v-.5" fill="none" stroke="#eff7fa" stroke-miterlimit="10" stroke-width="1"/>
    <line id="Line_6" data-name="Line 6" y1="10.721" transform="translate(30.83 5.859)" fill="none" stroke="#eff7fa" stroke-miterlimit="10" stroke-width="1" stroke-dasharray="0.932 0.932"/>
    <line id="Line_7" data-name="Line 7" y1="0.5" transform="translate(30.83 4.892)" fill="none" stroke="#eff7fa" stroke-miterlimit="10" stroke-width="1"/>
  </g>
</svg>
