<svg xmlns="http://www.w3.org/2000/svg" width="21.768" height="21.767" viewBox="0 0 21.768 21.767">
  <g id="Info" transform="translate(0)">
    <g id="Group_196" data-name="Group 196" transform="translate(0 0)">
      <g id="Group_195" data-name="Group 195">
        <path id="Path_1406" data-name="Path 1406" d="M16.884,27.767A10.884,10.884,0,1,0,6,16.884,10.884,10.884,0,0,0,16.884,27.767Zm0-1.979a8.9,8.9,0,1,0-8.9-8.9,8.9,8.9,0,0,0,8.9,8.9Zm1.732-13.6a1.439,1.439,0,0,1-.424,1.047,1.375,1.375,0,0,1-1.021.433,1.39,1.39,0,0,1-1.026-.433,1.434,1.434,0,0,1-.428-1.047,1.45,1.45,0,0,1,.428-1.051,1.418,1.418,0,0,1,2.047,0,1.454,1.454,0,0,1,.424,1.051Zm-.142,9.759q-.637.306-1.018.466a2.251,2.251,0,0,1-.882.16,1.565,1.565,0,0,1-1.2-.458,1.636,1.636,0,0,1-.428-1.163,4.988,4.988,0,0,1,.032-.56q.032-.286.1-.647l.532-2.287q.071-.329.119-.623a3.268,3.268,0,0,0,.048-.536.952.952,0,0,0-.149-.611.733.733,0,0,0-.568-.173,1.247,1.247,0,0,0-.423.079c-.145.052-.23-.557-.23-.557q.522-.258,1-.442a2.514,2.514,0,0,1,.9-.184,1.528,1.528,0,0,1,1.183.451,1.66,1.66,0,0,1,.416,1.171q0,.149-.029.525a4.2,4.2,0,0,1-.107.69l-.529,2.279q-.065.274-.116.627a3.915,3.915,0,0,0-.052.532.871.871,0,0,0,.167.619.814.814,0,0,0,.579.164,1.4,1.4,0,0,0,.438-.082c.163-.055.212.56.212.56Z" transform="translate(-6 -6)" fill="#eff7fa" fill-rule="evenodd"/>
      </g>
    </g>
  </g>
</svg>
