<?xml version="1.0" encoding="UTF-8"?>
<svg id="Layer_1" data-name="Layer 1" xmlns="http://www.w3.org/2000/svg" version="1.1" viewBox="0 0 400 400" width="42px" height="42px">
  <defs>
    <style>
      .cls-1 {
        fill: #af1d15;
      }

      .cls-1, .cls-2, .cls-3, .cls-4, .cls-5 {
        stroke-width: 0px;
      }

      .cls-2 {
        fill: #d1241c;
      }

      .cls-3 {
        fill: #fbc243;
      }

      .cls-4 {
        fill: #fff;
      }

      .cls-5 {
        fill: #c99328;
      }
    </style>
  </defs>
  <g>
    <polygon class="cls-1" points="149.6 366.5 89.6 385.7 89.6 144.8 149.6 144.8 149.6 366.5"/>
    <polygon class="cls-2" points="250.4 366.5 200 400 149.6 366.5 149.6 144.8 250.4 144.8 250.4 366.5"/>
    <polygon class="cls-1" points="310.4 385.7 250.4 366.5 250.4 144.8 310.4 144.8 310.4 385.7"/>
  </g>
  <g>
    <path class="cls-3" d="M339,209.1c-6.1,7.4-8.7,17-7.1,26.4l1.7,9.9c1.9,11.4-4.5,22.6-15.4,26.7l-9.4,3.5c-8.9,3.3-16,10.4-19.3,19.3l-3.5,9.4c-4,10.9-15.2,17.3-26.7,15.4l-20.8-3.5c-2.5-.4-5,.3-7,1.9l-16.2,13.4c-8.9,7.4-21.9,7.4-30.8,0l-16.2-13.4c-1.6-1.3-3.5-2-5.5-2s-1,0-1.4.1l-20.8,3.5c-11.4,1.9-22.6-4.5-26.7-15.4l-3.5-9.4c-3.3-8.9-10.4-16-19.3-19.3l-9.4-3.5c-10.9-4-17.3-15.2-15.4-26.7l1.7-9.8c1.6-9.4-1-19.1-7.1-26.4l-6.4-7.7c-7.4-8.9-7.4-21.9,0-30.8l6.4-7.7c6.1-7.4,8.7-17,7.1-26.4l-1.7-9.8c-1.9-11.4,4.5-22.6,15.4-26.7l9.4-3.5c8.9-3.3,16-10.4,19.3-19.3l3.5-9.4c4-10.9,15.2-17.3,26.7-15.4l9.9,1.7c9.4,1.6,19-1,26.4-7.1l7.7-6.4c8.9-7.4,21.9-7.4,30.8,0l16.2,13.4c1.9,1.6,4.5,2.3,7,1.9l20.8-3.5c11.4-1.9,22.6,4.5,26.7,15.4l3.5,9.4c3.3,8.9,10.4,16,19.3,19.3l9.4,3.5c10.9,4,17.3,15.2,15.4,26.7l-1.7,9.8c-1.6,9.4,1,19.1,7.1,26.4l6.4,7.7c7.4,8.9,7.4,21.9,0,30.8l-6.4,7.7Z"/>
    <path id="Path_2071" data-name="Path 2071" class="cls-5" d="M307.2,186c0,59.2-48,107.2-107.2,107.2-59.2,0-107.2-48-107.2-107.2,0-59.2,48-107.2,107.2-107.2,0,0,0,0,0,0,59.2,0,107.2,48,107.2,107.2Z"/>
    <g id="Group_646" data-name="Group 646">
      <path id="Path_976" data-name="Path 976" class="cls-4" d="M200,257.3c-39.4,0-71.3-31.9-71.3-71.3,0-39.4,31.9-71.3,71.3-71.3,39.4,0,71.3,31.9,71.3,71.3h0c0,39.4-31.9,71.2-71.3,71.3ZM200,124.4c-34,0-61.6,27.6-61.6,61.6,0,34,27.6,61.6,61.6,61.6,34,0,61.6-27.6,61.6-61.6,0-34-27.6-61.6-61.6-61.6Z"/>
      <path id="Path_977" data-name="Path 977" class="cls-4" d="M200,233.4c-26.2,0-47.4-21.2-47.4-47.4,0-26.2,21.2-47.4,47.4-47.4,26.2,0,47.4,21.2,47.4,47.4,0,26.2-21.2,47.3-47.4,47.4ZM200,148.3c-20.8,0-37.7,16.9-37.7,37.7,0,20.8,16.9,37.7,37.7,37.7,20.8,0,37.7-16.9,37.7-37.7,0-20.8-16.9-37.7-37.7-37.7Z"/>
      <circle id="Ellipse_4" data-name="Ellipse 4" class="cls-4" cx="200" cy="186" r="18.6"/>
    </g>
  </g>
</svg>