<?xml version="1.0" encoding="UTF-8"?>
<svg id="Layer_1" data-name="Layer 1" xmlns="http://www.w3.org/2000/svg" version="1.1" viewBox="0 0 400 400" width="42px" height="42px">
  <defs>
    <style>
      .cls-1 {
        fill: #af1d15;
      }

      .cls-1, .cls-2, .cls-3, .cls-4, .cls-5 {
        stroke-width: 0px;
      }

      .cls-2 {
        fill: #d1241c;
      }

      .cls-3 {
        fill: #fbc243;
      }

      .cls-4 {
        fill: #fff;
      }

      .cls-5 {
        fill: #c99328;
      }
    </style>
  </defs>
  <g>
    <polygon class="cls-1" points="149.6 366.5 89.6 385.7 89.6 144.8 149.6 144.8 149.6 366.5"/>
    <polygon class="cls-2" points="250.4 366.5 200 400 149.6 366.5 149.6 144.8 250.4 144.8 250.4 366.5"/>
    <polygon class="cls-1" points="310.4 385.7 250.4 366.5 250.4 144.8 310.4 144.8 310.4 385.7"/>
  </g>
  <g>
    <path class="cls-3" d="M339,209.1c-6.1,7.4-8.7,17-7.1,26.4l1.7,9.9c1.9,11.4-4.5,22.6-15.4,26.7l-9.4,3.5c-8.9,3.3-16,10.4-19.3,19.3l-3.5,9.4c-4,10.9-15.2,17.3-26.7,15.4l-20.8-3.5c-2.5-.4-5,.3-7,1.9l-16.2,13.4c-8.9,7.4-21.9,7.4-30.8,0l-16.2-13.4c-1.6-1.3-3.5-2-5.5-2s-1,0-1.4.1l-20.8,3.5c-11.4,1.9-22.6-4.5-26.7-15.4l-3.5-9.4c-3.3-8.9-10.4-16-19.3-19.3l-9.4-3.5c-10.9-4-17.3-15.2-15.4-26.7l1.7-9.8c1.6-9.4-1-19.1-7.1-26.4l-6.4-7.7c-7.4-8.9-7.4-21.9,0-30.8l6.4-7.7c6.1-7.4,8.7-17,7.1-26.4l-1.7-9.8c-1.9-11.4,4.5-22.6,15.4-26.7l9.4-3.5c8.9-3.3,16-10.4,19.3-19.3l3.5-9.4c4-10.9,15.2-17.3,26.7-15.4l9.9,1.7c9.4,1.6,19-1,26.4-7.1l7.7-6.4c8.9-7.4,21.9-7.4,30.8,0l16.2,13.4c1.9,1.6,4.5,2.3,7,1.9l20.8-3.5c11.4-1.9,22.6,4.5,26.7,15.4l3.5,9.4c3.3,8.9,10.4,16,19.3,19.3l9.4,3.5c10.9,4,17.3,15.2,15.4,26.7l-1.7,9.8c-1.6,9.4,1,19.1,7.1,26.4l6.4,7.7c7.4,8.9,7.4,21.9,0,30.8l-6.4,7.7Z"/>
    <path id="Path_2071" data-name="Path 2071" class="cls-5" d="M307.2,186c0,59.2-48,107.2-107.2,107.2-59.2,0-107.2-48-107.2-107.2,0-59.2,48-107.2,107.2-107.2,0,0,0,0,0,0,59.2,0,107.2,48,107.2,107.2Z"/>
    <path id="Path_1815" data-name="Path 1815" class="cls-4" d="M137.3,215.5c.2-.4.5-.9.7-1.3,1.1-1.8,2.3-3.6,3.6-5.2,2.9-3.4,6.3-6.4,10.1-8.8,3.9-2.4,7.9-4.4,12.2-6,4.2-1.6,8.5-2.9,12.7-4.2s8.4-2.4,12.4-3.7c4-1.3,7.9-2.6,11.6-4,3.5-1.4,7-3,10.4-4.7,3-1.6,5.9-3.4,8.7-5.4,2.4-1.7,4.6-3.5,6.8-5.4l1.4-1.3c.4-.4.9-.8,1.3-1.2.8-.8,1.5-1.6,2.2-2.2,1.3-1.4,2.3-2.5,2.9-3.3l1-1.2c.1-.2.4-.2.5,0s.2.3,0,.5c0,0-.3.5-.8,1.4s-1.3,2.2-2.3,3.8c-1.3,2-2.7,3.9-4.1,5.7-1.9,2.4-4,4.6-6.2,6.7-2.7,2.5-5.5,4.8-8.5,6.9-3.3,2.3-6.8,4.4-10.5,6.2-3.8,1.9-7.7,3.7-11.8,5.3-4.1,1.6-8.2,3.2-12.2,4.7-4.1,1.5-8,3.1-11.8,4.7-3.6,1.5-7,3.4-10.2,5.6-.9.6-1.7,1.2-2.5,1.9l-1.3.8c-3.8,2.4-7.2,5.4-10.1,8.8-1.3,1.6-2.6,3.4-3.6,5.2-1,1.7-1.9,3.4-2.6,5.3-1.3,3.1-2.2,6.3-2.8,9.6-.5,2.5-.8,4.9-1,7.4-.1,2-.2,3.7-.2,4.7v1.2c0,0,0,.1,0,.2.6,0,1.2.1,1.8.1h1.2s1.3,0,1.3,0h1.1s.8,0,.8,0h1.1s1.3,0,1.3,0h1.2c.6,0,1.2,0,1.8-.2,0,0,0,0,0-.2v-1.1c0-1,0-2.3.2-4.1.1-2.1.4-4.1.8-6.2.5-2.6,1.2-5.1,2.1-7.5.5-1.3,1.1-2.7,1.8-3.9,0,0,0-.2.1-.3,106.6,34.2,116.7-113.4,116.7-113.4-13.2,40.9-124.3,13.1-129.3,98Z"/>
  </g>
</svg>