<svg xmlns="http://www.w3.org/2000/svg" width="19.939" height="20.867" viewBox="558.262 261.381 19.939 20.867"><g data-name="Group 632"><g data-name="Group 633"><path d="M569.59 267.044a5.662 5.662 0 0 1-5.663 5.663 5.663 5.663 0 0 1-5.665-5.663 5.663 5.663 0 0 1 5.665-5.663 5.662 5.662 0 0 1 5.663 5.663Z" stroke-linejoin="round" stroke-linecap="round" stroke="#bedce8" fill="transparent" data-name="Path 1801"/><path d="M568.694 267.544a4.267 4.267 0 0 1-4.267 4.267 4.267 4.267 0 0 1-4.269-4.267 4.267 4.267 0 0 1 4.269-4.267 4.267 4.267 0 0 1 4.267 4.267Z" fill="#bedce8" fill-rule="evenodd" data-name="Path 1796"/><path d="M578.201 278.528h-3.72v3.72h-2.241v-3.72h-3.721v-2.241h3.72v-3.721h2.241v3.72h3.721v2.242Z" fill="#bedce8" fill-rule="evenodd" data-name="Path 1800"/></g></g></svg>