<svg xmlns="http://www.w3.org/2000/svg" width="26.328" height="20.867" viewBox="553.474 302.737 26.328 20.867"><g data-name="Group 631"><g data-name="Group 654"><path d="M572.043 319.883h-3.72v3.721h-2.241v-3.72h-3.721v-2.241h3.72v-3.721h2.242v3.72h3.72v2.241Z" fill="#bedce8" fill-rule="evenodd" data-name="Path 1800"/><path d="M564.802 308.4a5.662 5.662 0 0 1-5.663 5.663 5.663 5.663 0 0 1-5.665-5.663 5.663 5.663 0 0 1 5.665-5.663 5.662 5.662 0 0 1 5.663 5.663Z" stroke-linejoin="round" stroke-linecap="round" stroke="#bedce8" fill="transparent" data-name="Path 1821"/><path d="M563.906 308.9a4.267 4.267 0 0 1-4.267 4.267 4.267 4.267 0 0 1-4.269-4.267 4.267 4.267 0 0 1 4.269-4.267 4.267 4.267 0 0 1 4.267 4.267Z" fill="#bedce8" fill-rule="evenodd" data-name="Path 1822"/><path d="M579.802 308.4a5.662 5.662 0 0 1-5.663 5.663 5.663 5.663 0 0 1-5.665-5.663 5.663 5.663 0 0 1 5.665-5.663 5.662 5.662 0 0 1 5.663 5.663Z" stroke-linejoin="round" stroke-linecap="round" stroke="#bedce8" fill="transparent" data-name="Path 1823"/><path d="M578.906 308.9a4.267 4.267 0 0 1-4.267 4.267 4.267 4.267 0 0 1-4.269-4.267 4.267 4.267 0 0 1 4.269-4.267 4.267 4.267 0 0 1 4.267 4.267Z" fill="#bedce8" fill-rule="evenodd" data-name="Path 1824"/></g></g></svg>