<svg xmlns="http://www.w3.org/2000/svg" width="27.328" height="20.867" viewBox="0 0 27.328 20.867">
  <g id="Group_631" data-name="Group 631" transform="translate(1.526 1.896)">
    <g id="Group_654" data-name="Group 654" transform="translate(0 0)">
      <path id="Path_1800" data-name="Path 1800" d="M13.9,10.442H10.181v3.721H7.94V10.442H4.219V8.2H7.94V4.481h2.241V8.2H13.9Z" transform="translate(3.142 4.808)" fill="#bedce8"/>
      <path id="Path_1821" data-name="Path 1821" d="M11.328,5.663A5.664,5.664,0,1,1,5.665,0a5.662,5.662,0,0,1,5.663,5.663" transform="translate(-1.026 -1.396)" fill="none" stroke="#bedce8" stroke-width="1"/>
      <path id="Path_1822" data-name="Path 1822" d="M8.536,4.267A4.268,4.268,0,1,1,4.269,0,4.267,4.267,0,0,1,8.536,4.267" transform="translate(0.37 0)" fill="#bedce8"/>
      <path id="Path_1823" data-name="Path 1823" d="M11.328,5.663A5.664,5.664,0,1,1,5.665,0a5.662,5.662,0,0,1,5.663,5.663" transform="translate(13.974 -1.396)" fill="none" stroke="#bedce8" stroke-width="1"/>
      <path id="Path_1824" data-name="Path 1824" d="M8.536,4.267A4.268,4.268,0,1,1,4.269,0,4.267,4.267,0,0,1,8.536,4.267" transform="translate(15.37 0)" fill="#bedce8"/>
    </g>
  </g>
</svg>
