<svg xmlns="http://www.w3.org/2000/svg" width="29.304" height="27.335" viewBox="0 0 29.304 27.335">
  <g id="Group_651" data-name="Group 651" transform="translate(-1526.665 -614.665)">
    <g id="Groups_Layers" data-name="Groups/Layers" transform="translate(-97 -379)">
      <path id="Path_1654" data-name="Path 1654" d="M1638,11332l-14,7,14,7,14-7Z" transform="translate(0 -10325)" fill="#bedce8"/>
      <path id="Path_1653" data-name="Path 1653" d="M1638,11332l-14,7,14,7,14-7Z" transform="translate(0 -10332)" fill="#bedce8"/>
      <path id="Path_1655" data-name="Path 1655" d="M1624,11340l14,7,14-7" transform="translate(0 -10333)" fill="none" stroke="#21508c" stroke-width="1.5"/>
    </g>
    <path id="noun-feedback-4649523-FFFFFF" d="M98.572,90.855h-7a.7.7,0,0,0-.7.7v7.312a.393.393,0,0,0,.679.269L93.1,97.52h5.477a.7.7,0,0,0,.7-.7V91.551a.7.7,0,0,0-.7-.7ZM93,93.9l1.672-1.945h0a.6.6,0,1,1,.912.778l-1.619,1.9-1.167.382Zm4.349,2.334H92.8v-.718h4.547Z" transform="translate(1456.696 523.81)" fill="#bedce8"/>
  </g>
</svg>
