<svg xmlns="http://www.w3.org/2000/svg" width="29.718" height="27.335" viewBox="1018.25 614.665 29.718 27.335"><g data-name="Group 651"><g data-name="Groups/Layers"><path d="m1033 628-14 7 14 7 14-7-14-7Z" fill="#bedce8" fill-rule="evenodd" data-name="Path 1654"/><path d="m1033 621-14 7 14 7 14-7-14-7Z" fill="#bedce8" fill-rule="evenodd" data-name="Path 1653"/><path d="m1046.25 627.25-14 7-14-7" stroke-linejoin="round" stroke-linecap="round" stroke-width="1.5" stroke="#21508c" fill="transparent" data-name="Path 1655"/></g><path d="M1047.268 614.665h-7.001a.44.44 0 0 0-.001 0 .699.699 0 0 0-.493.203.699.699 0 0 0-.206.493v7.313c0 .105.043.206.118.28a.393.393 0 0 0 .275.112.394.394 0 0 0 .008 0 .393.393 0 0 0 .278-.124l1.545-1.612h5.477a.702.702 0 0 0 .495-.206.702.702 0 0 0 .205-.494v-5.269a.699.699 0 0 0-.206-.493.699.699 0 0 0-.493-.203.459.459 0 0 0-.001 0Zm-1.227 5.378h-4.547v-.718h4.547v.718Zm-4.35-2.334 1.673-1.944a.601.601 0 0 1 .415-.242.603.603 0 0 1 .008-.001.601.601 0 0 1 .452.14.601.601 0 0 1 .21.432.602.602 0 0 1 .001.026.601.601 0 0 1-.173.422l-1.62 1.903-1.167.382.202-1.118Z" fill="#bedce8" fill-rule="evenodd" data-name="noun-feedback-4649523-FFFFFF"/></g></svg>