<svg xmlns="http://www.w3.org/2000/svg" width="20.501" height="20.5" viewBox="1023.579 584.566 20.501 20.5"><path d="M1042.371 584.566h-17.083a1.688 1.688 0 0 0-.004 0 1.705 1.705 0 0 0-1.202.496c-.32.319-.501.752-.503 1.204v17.843a.959.959 0 0 0 .288.684.959.959 0 0 0 .67.273.96.96 0 0 0 .02 0 .959.959 0 0 0 .679-.302l3.77-3.934h13.365a1.713 1.713 0 0 0 1.709-1.708v-12.856a1.705 1.705 0 0 0-.503-1.204 1.705 1.705 0 0 0-1.202-.496 1.688 1.688 0 0 0-.004 0Zm-2.994 13.123h-11.096v-1.751h11.096v1.751Zm-10.612-5.694 4.08-4.746a1.467 1.467 0 0 1 1.014-.59 1.473 1.473 0 0 1 .017-.002c.051-.005.102-.008.153-.008a1.467 1.467 0 0 1 .952.35 1.467 1.467 0 0 1 .514 1.055 1.469 1.469 0 0 1 .001.062 1.467 1.467 0 0 1-.424 1.032l-3.952 4.641-2.847.932.492-2.726Z" fill="#bedce8" fill-rule="evenodd" data-name="noun-feedback-4649523-FFFFFF"/></svg>