<svg xmlns="http://www.w3.org/2000/svg" width="28.736" height="11.326" viewBox="552.834 626.381 28.736 11.326"><g data-name="Group 636"><path d="M572.366 632.044a5.662 5.662 0 0 1-5.663 5.663 5.663 5.663 0 0 1-5.665-5.663 5.663 5.663 0 0 1 5.665-5.663 5.662 5.662 0 0 1 5.663 5.663Z" stroke-linejoin="round" stroke-linecap="round" stroke="#bedce8" fill="transparent" data-name="Path 1803"/><path d="M571.47 632.544a4.267 4.267 0 0 1-4.267 4.267 4.267 4.267 0 0 1-4.269-4.267 4.267 4.267 0 0 1 4.269-4.267 4.267 4.267 0 0 1 4.267 4.267Z" fill="#bedce8" fill-rule="evenodd" data-name="Path 1804"/><path d="m581.57 632.544-5.925-4.444v2.963h-2.962v2.962h2.962v2.962l5.925-4.443Z" fill="#bedce8" fill-rule="evenodd" data-name="Path 1805"/><path d="m552.834 632.544 5.925 4.443v-2.962h2.962v-2.962h-2.962V628.1l-5.925 4.444Z" fill="#bedce8" fill-rule="evenodd" data-name="Path 1806"/></g></svg>