<svg xmlns="http://www.w3.org/2000/svg" width="28.548" height="24.024" viewBox="553.412 942.947 28.548 24.024"><g data-name="Group 645"><path d="M566.15 954.894v4.143h-3.071l4.607 5.118 4.607-5.118h-3.072v-4.143h-3.07Z" fill="#bedce8" fill-rule="evenodd" data-name="Path 1813"/><path d="M561.543 965.436h12.286v1.535h-12.286v-1.535" fill="#bedce8" fill-rule="evenodd" data-name="Rectangle 426"/><g data-name="Group 644"><g data-name="Group 643" transform="translate(553.412 942.947)" clip-path="url(&quot;#a&quot;)"><path d="M25.569 0H2.979A2.98 2.98 0 0 0 0 2.98v5.562a2.98 2.98 0 0 0 2.98 2.98h22.589a2.98 2.98 0 0 0 2.98-2.98V2.98A2.98 2.98 0 0 0 25.568 0Zm-5.353 9.083h-1.422l-1.025-3.6-1.007 3.6H15.35l-1.504-6.645h1.538l.788 3.479.973-3.479h1.262l.988 3.481.78-3.481h1.539l-1.498 6.645Zm-13.247 0H5.407v-2.76h-1.75v2.76H2.09V2.438h1.566v2.375h1.75V2.438H6.97v6.645Zm4.77 0-1.675-2.412v2.412H8.503V2.438h1.561v1.84l1.449-1.84h1.883l-2.34 2.99 2.529 3.655h-1.847ZM22.166 7.78l-.072-.145 1.303-.786.087.161c.269.493.569.743.892.743a.724.724 0 0 0 .178-.02.55.55 0 0 0 .227-.118.548.548 0 0 0 .076-.078.32.32 0 0 0 .072-.204c0-.105-.04-.21-.124-.323-.066-.09-.236-.27-.669-.624a17.369 17.369 0 0 1-.467-.394c-.44-.385-.735-.694-.896-.937a1.648 1.648 0 0 1-.001-.002 1.957 1.957 0 0 1-.305-.737 1.56 1.56 0 0 1-.024-.27 1.66 1.66 0 0 1 .537-1.234 2.112 2.112 0 0 1 .017-.016c.365-.343.82-.516 1.352-.516a2.125 2.125 0 0 1 .978.237c.212.109.436.28.67.51a5.39 5.39 0 0 1 .306.328l.113.131-1.163 1.026-.113-.157a2.423 2.423 0 0 0-.202-.249c-.158-.167-.314-.27-.466-.31a.557.557 0 0 0-.141-.019.406.406 0 0 0-.273.085c-.078.066-.087.118-.087.15a.29.29 0 0 0 .035.138.41.41 0 0 0 .036.056c.06.078.258.278.852.781a59.492 59.492 0 0 1 .242.203c.321.272.52.447.602.532.208.21.37.417.482.617a1.81 1.81 0 0 1 .069.137 1.92 1.92 0 0 1 .166.725 2.183 2.183 0 0 1 .002.081 1.988 1.988 0 0 1-.149.777 1.843 1.843 0 0 1-.442.63 2.004 2.004 0 0 1-1.074.518 2.727 2.727 0 0 1-.443.035 2.464 2.464 0 0 1-.736-.107 2.09 2.09 0 0 1-.532-.252c-.323-.213-.607-.538-.843-.967a4.108 4.108 0 0 1-.072-.136Z" fill="#bedce8" fill-rule="evenodd" data-name="Path 1814"/></g></g></g><defs><clipPath id="a"><path d="M0 0h28.548v24.024H0V0" data-name="Rectangle 427"/></clipPath></defs></svg>