<svg xmlns="http://www.w3.org/2000/svg" width="28.548" height="24.024" viewBox="553.686 983.898 28.548 24.024"><g data-name="Group 642"><path d="M566.424 995.845v4.142h-3.07l4.606 5.119 4.607-5.119h-3.071v-4.142h-3.072Z" fill="#bedce8" fill-rule="evenodd" data-name="Path 1811"/><path d="M561.818 1006.386h12.285v1.536h-12.285v-1.536" fill="#bedce8" fill-rule="evenodd" data-name="Rectangle 424"/><g data-name="Group 641"><g data-name="Group 640" transform="translate(553.686 983.898)" clip-path="url(&quot;#a&quot;)"><path d="M25.569 0H2.979A2.98 2.98 0 0 0 0 2.98v5.562a2.98 2.98 0 0 0 2.98 2.98h22.589a2.98 2.98 0 0 0 2.98-2.98V2.98A2.98 2.98 0 0 0 25.568 0Zm-2.401 3.521.115.125-1.092 1.08-.123-.13a2.733 2.733 0 0 0-.622-.501 2.198 2.198 0 0 0-1.118-.292 2.174 2.174 0 0 0-.698.107 1.907 1.907 0 0 0-.736.459 1.884 1.884 0 0 0-.458.69 1.937 1.937 0 0 0-.117.682 1.962 1.962 0 0 0 .157.797 1.966 1.966 0 0 0 .441.623 2.007 2.007 0 0 0 1.374.581 2.684 2.684 0 0 0 .11.002 2.282 2.282 0 0 0 .433-.039c.197-.038.372-.103.523-.196a1.407 1.407 0 0 0 .335-.29 1.8 1.8 0 0 0 .15-.202h-1.704V5.54h3.512l.014.44a3.27 3.27 0 0 1-.452 1.654 3.33 3.33 0 0 1-.7.858 2.986 2.986 0 0 1-.473.336 3.103 3.103 0 0 1-1.078.368 3.977 3.977 0 0 1-.605.045 4.005 4.005 0 0 1-1.141-.159 3.437 3.437 0 0 1-.692-.289 3.302 3.302 0 0 1-1.283-1.28 3.572 3.572 0 0 1-.47-1.785 3.342 3.342 0 0 1 .87-2.291 3.41 3.41 0 0 1 2.53-1.156 4.5 4.5 0 0 1 .152-.002 4.087 4.087 0 0 1 1.557.298 3.865 3.865 0 0 1 .048.02 3.062 3.062 0 0 1 .62.36c.21.155.418.343.621.563Zm-9.484 5.562h-1.402L9.928 2.438h1.604l1.46 4.125 1.483-4.125h1.603l-2.394 6.645ZM4.957 7.78l-.073-.145 1.303-.786.088.161a2.555 2.555 0 0 0 .194.306c.216.29.45.437.698.437a.724.724 0 0 0 .178-.02.55.55 0 0 0 .226-.118.548.548 0 0 0 .076-.078.334.334 0 0 0 .065-.13.32.32 0 0 0 .008-.074.512.512 0 0 0-.096-.284.903.903 0 0 0-.028-.04 1.047 1.047 0 0 0-.06-.072 4.785 4.785 0 0 0-.472-.437 12.555 12.555 0 0 0-.137-.114 17.368 17.368 0 0 1-.467-.394c-.44-.385-.735-.694-.896-.937a1.648 1.648 0 0 1-.001-.002 2.188 2.188 0 0 1-.206-.39 1.743 1.743 0 0 1-.1-.347 1.56 1.56 0 0 1-.023-.27 1.659 1.659 0 0 1 .537-1.234 2.113 2.113 0 0 1 .017-.016 1.894 1.894 0 0 1 1.278-.515 2.4 2.4 0 0 1 .074-.001c.34 0 .67.08.977.237.213.109.437.28.67.51a5.39 5.39 0 0 1 .307.328l.113.131-1.163 1.026-.113-.157c-.226-.315-.45-.503-.669-.56a.557.557 0 0 0-.14-.018.406.406 0 0 0-.273.085.387.387 0 0 0-.033.032c-.048.05-.055.091-.055.119a.29.29 0 0 0 .035.137.41.41 0 0 0 .037.056.97.97 0 0 0 .061.07c.104.11.326.318.791.711.466.39.742.63.844.735a3.56 3.56 0 0 1 .274.309c.082.104.15.207.207.308a1.81 1.81 0 0 1 .07.137 1.92 1.92 0 0 1 .166.725 2.183 2.183 0 0 1 .002.081 1.988 1.988 0 0 1-.149.777 1.843 1.843 0 0 1-.442.63 2.004 2.004 0 0 1-1.074.518 2.727 2.727 0 0 1-.443.035 2.464 2.464 0 0 1-.736-.107 2.09 2.09 0 0 1-.532-.252 2.288 2.288 0 0 1-.498-.454 3.29 3.29 0 0 1-.345-.513 4.108 4.108 0 0 1-.072-.136Z" fill="#bedce8" fill-rule="evenodd" data-name="Path 1812"/></g></g></g><defs><clipPath id="a"><path d="M0 0h28.548v24.024H0V0" data-name="Rectangle 425"/></clipPath></defs></svg>