<svg xmlns="http://www.w3.org/2000/svg" width="19.594" height="18.144" viewBox="1023 782.999 19.594 18.144"><g data-name="Group 648"><g data-name="Group 647" transform="translate(1023 783)" clip-path="url(&quot;#a&quot;)"><path d="M17.165.118h2.346a11.794 11.794 0 0 1 .011.39c.02 1.664-.336 2.888-.923 3.754a4.142 4.142 0 0 1-3.581 1.76 7.382 7.382 0 0 1-.512-.018c-1.378-.095-2.756-.592-5.157-1.705a60.659 60.659 0 0 1-.043-.021c-1.192-.583-2.22-1.132-3.18-1.44A4.794 4.794 0 0 0 4.66 2.58a1.958 1.958 0 0 0-1.845 1.052c-.295.532-.467 1.28-.5 2.272H.009c-.083-2.064.467-3.594 1.4-4.579A4.371 4.371 0 0 1 4.659 0a6.914 6.914 0 0 1 1.057.078C6.72.232 7.725.62 9.204 1.304a89.571 89.571 0 0 1 .967.456c1.984.935 3.427 1.637 4.869 1.642a4.456 4.456 0 0 0 .015 0c1.36 0 2.028-1.06 2.105-3.075a10.219 10.219 0 0 0 .005-.209ZM.051 11.587h19.543V8.965H.05v2.622Zm0 6.556h19.543v-2.621H.05v2.62Z" fill="#bedce8" fill-rule="evenodd" data-name="Path 1816"/></g></g><defs><clipPath id="a"><path d="M0 0h19.594v18.143H0V0" data-name="Rectangle 428"/></clipPath></defs></svg>