<svg xmlns="http://www.w3.org/2000/svg" width="19.049" height="18.998" viewBox="1024 900.31 19.049 18.998"><path d="M1041.337 919.307h-15.619a1.69 1.69 0 0 1-.858-.231 1.59 1.59 0 0 1-.556-.522 1.924 1.924 0 0 1-.083-.138c-.321-.589-.292-1.175.086-1.743l6.387-9.933v-4.526h-.966a.99.99 0 0 1-.33-.052.88.88 0 0 1-.345-.225.951.951 0 0 1-.265-.649 1.243 1.243 0 0 1 0-.038.927.927 0 0 1 .265-.66.875.875 0 0 1 .605-.278 1.156 1.156 0 0 1 .07-.002h7.598c.27 0 .502.094.687.28a.901.901 0 0 1 .28.66.98.98 0 0 1-.069.375.95.95 0 0 1-.21.312.942.942 0 0 1-.688.277h-.94v4.552l6.363 9.907a2.011 2.011 0 0 1 .213.433c.134.39.113.785-.062 1.177a2.05 2.05 0 0 1-.066.133 1.608 1.608 0 0 1-.368.477 1.478 1.478 0 0 1-.262.183c-.27.153-.562.231-.867.231Zm-8.749-17.093v5.083l-3.9 6.086h9.678l-3.873-6.06v-5.109h-1.905Z" fill="#bedce8" fill-rule="evenodd" data-name="Fill 106"/></svg>