<svg xmlns="http://www.w3.org/2000/svg" width="28.35" height="20.686" viewBox="1019 220.814 28.35 20.686"><path d="m1035.715 241.5-.001-.002-2.77-3.784-3.14 3.417-.461-3.786-5.818 3.693 2.216-5.91-3.878 1.016 2.586-3.047-5.449-2.033 6.741-.923-4.617-5.54 7.295 2.215v-6.002l3.878 4.987 1.294-3.97 1.2 4.985 6.557-5.078-2.124 5.356 4.525-1.293-2.678 4.34 6.279 2.586-7.573 1.385 3.602 5.634-6.186-2.31-1.478 4.062v.002Zm-2.416-13.5c-1.93 0-3.5 1.57-3.5 3.5s1.57 3.5 3.5 3.5a3.504 3.504 0 0 0 3.5-3.5 3.504 3.504 0 0 0-3.5-3.5Z" fill="#bedce8" fill-rule="evenodd" data-name="Subtraction 2"/></svg>