<svg xmlns="http://www.w3.org/2000/svg" width="20.501" height="26.266" viewBox="1024.13 456.42 20.501 26.266"><path d="M1034.955 462.46v19.936a.192.192 0 0 1-.094.155c-.315.223-1.31.171-1.31-.155V462.46a.192.192 0 0 1 .095-.155c.315-.223 1.31-.171 1.31.155Zm2.032-1.83 3.906 1.966.312-4.327a.293.293 0 0 0 0-.003c0-.214-.238-.346-1.756.504a6.17 6.17 0 0 0-2.928-1.988 7.246 7.246 0 0 0-2.267-.361 7.049 7.049 0 0 0-3.736 1.05 5.508 5.508 0 0 0-1.894 1.948c-.167.298.765.866 1.118.765a.17.17 0 0 0 .107-.08c.775-1.385 2.504-2.28 4.405-2.28a5.752 5.752 0 0 1 2.485.554 4.59 4.59 0 0 1 1.463 1.09 13.428 13.428 0 0 0-.35.202c-.74.444-.95.69-.95.831a.15.15 0 0 0 .085.129Zm-.716 11.75a.102.102 0 0 0-.025.048.274.274 0 0 0 .084.113c.848.863 7.826 5.864 8.044 5.864a.008.008 0 0 0 .004 0c.33-.165.336-11.398.016-11.935a.045.045 0 0 0-.016-.018c-.326-.162-7.625 5.287-8.107 5.928Zm-12.142-5.928v11.952c.135.067 7.575-5.267 8.102-5.923a.11.11 0 0 0 .03-.053s-7.795-6.143-8.132-5.976Z" fill="#bedce8" fill-rule="evenodd" data-name="noun-reflect-4381189-FFFFFF"/></svg>