<svg xmlns="http://www.w3.org/2000/svg" width="30.639" height="27.652" viewBox="1018 937.74 30.639 27.652"><g data-name="Folding Engine"><path d="m1029.413 956.474-4.441 2.557a3.867 3.867 0 0 0-2.646-1.464 3.862 3.862 0 0 0-2.373.518 3.917 3.917 0 0 0-1.424 5.353 3.904 3.904 0 0 0 2.304 1.8c.946.272 1.993.19 2.923-.305a3.987 3.987 0 0 0 .127-.07 3.854 3.854 0 0 0 1.8-4.404l4.536-2.613a4.378 4.378 0 0 1-.806-1.372Z" fill="#bedce8" fill-rule="evenodd" data-name="Path 1601"/><path d="m1031.145 958.454-1.608.946a5.59 5.59 0 0 0 3.057 1.425 5.603 5.603 0 0 0 4.314-1.246 5.683 5.683 0 0 0 .204-.179l-1.61-.946a3.82 3.82 0 0 1-2.152.664 3.811 3.811 0 0 1-.027 0 3.811 3.811 0 0 1-.026 0 3.82 3.82 0 0 1-2.152-.664Z" fill="#bedce8" fill-rule="evenodd" data-name="Path 1602"/><path d="M1037.301 955.111v.234l1.61.947c.097-.387.145-.784.143-1.183a5.717 5.717 0 0 0-3.931-5.397v1.893a3.973 3.973 0 0 1 2.178 3.506Z" fill="#bedce8" fill-rule="evenodd" data-name="Path 1603"/><path d="M1033.323 952.204a2.982 2.982 0 0 0-2.982 2.982 2.982 2.982 0 0 0 2.982 2.983 2.982 2.982 0 0 0 2.983-2.983 2.947 2.947 0 0 0 0-.012 2.97 2.97 0 0 0-.87-2.1 2.97 2.97 0 0 0-2.113-.87Z" fill="#bedce8" fill-rule="evenodd" data-name="Path 1604"/><path d="M1029.394 955.345v-.234a3.973 3.973 0 0 1 2.178-3.506v-1.893a5.717 5.717 0 0 0-3.929 5.397 4.777 4.777 0 0 0 0 .025 4.77 4.77 0 0 0 .143 1.158l1.608-.947Z" fill="#bedce8" fill-rule="evenodd" data-name="Path 1605"/><path d="M1032.52 945.514v5.587a4.17 4.17 0 0 1 .803-.096 4.675 4.675 0 0 1 .804.096v-5.587a3.93 3.93 0 0 0 3.124-3.842 3.962 3.962 0 0 0-.02-.408 3.93 3.93 0 0 0-3.91-3.524 3.93 3.93 0 0 0-3.907 3.524 3.962 3.962 0 0 0-.021.408 3.93 3.93 0 0 0 3.124 3.842h.002Z" fill="#bedce8" fill-rule="evenodd" data-name="Path 1606"/><path d="m1041.686 959.031-4.5-2.557a3.632 3.632 0 0 1-.803 1.372l4.546 2.65a3.915 3.915 0 0 0 2.48 4.651 3.925 3.925 0 0 0 .806.195 3.916 3.916 0 0 0 4.057-2.228 3.907 3.907 0 0 0 .352-1.31 3.916 3.916 0 0 0-1.92-3.722v.003a3.915 3.915 0 0 0-1.687-.514 3.926 3.926 0 0 0-3.313 1.438 3.978 3.978 0 0 0-.018.022Z" fill="#bedce8" fill-rule="evenodd" data-name="Path 1607"/></g></svg>