<svg xmlns="http://www.w3.org/2000/svg" width="20" height="21.73" viewBox="0 0 20 21.73">
  <path id="noun_Snowflake_1823823" d="M39.434,30.545l-.532-1.7-3.594,1.1L32.28,28.182l3.062-1.764,3.561,1.1.532-1.7-2-.6L40,23.756l-1.131-1.963-2.562,1.464.466-2.03-1.73-.4-.832,3.661-3.062,1.764V22.658l2.729-2.529-1.231-1.3-1.531,1.431V17.3h-2.3v2.962l-1.5-1.431-1.2,1.3,2.729,2.529v3.527L25.79,24.421l-.832-3.661-1.73.433.466,2.03-2.562-1.464L20,23.723l2.562,1.464-2,.6.532,1.7,3.561-1.065,3.062,1.764-3.062,1.764-3.594-1.1-.532,1.7,2,.6L20,32.641,21.131,34.6l2.562-1.464-.466,2.03,1.73.4.832-3.661,3.062-1.764v3.527L26.123,36.2l1.2,1.3,1.531-1.431V39.03h2.3V36.069L32.679,37.5l1.2-1.3-2.729-2.529V30.145l3.062,1.764.832,3.661,1.73-.4-.466-2.03L38.869,34.6,40,32.641l-2.562-1.464Zm-9.451-2.363Z" transform="translate(-20 -17.3)" fill="#bedce8"/>
</svg>
