<svg xmlns="http://www.w3.org/2000/svg" width="20" height="21.73" viewBox="557.068 581.854 20 21.73"><path d="m576.502 595.098-.532-1.697-3.594 1.098-3.029-1.764 3.062-1.763 3.56 1.098.533-1.697-1.997-.6 2.563-1.464-1.132-1.963-2.562 1.464.466-2.03-1.73-.399-.833 3.66-3.061 1.764v-3.594l2.729-2.529-1.232-1.298-1.53 1.431v-2.961h-2.297v2.961l-1.497-1.43-1.198 1.297 2.729 2.53v3.527l-3.062-1.764-.832-3.66-1.73.432.466 2.03-2.563-1.464-1.131 1.963 2.562 1.464-1.997.6.533 1.697 3.56-1.065 3.062 1.763-3.061 1.764-3.594-1.098-.533 1.697 1.997.6-2.53 1.497 1.132 1.963 2.563-1.464-.466 2.03 1.73.4.832-3.661 3.062-1.764v3.527l-2.73 2.53 1.199 1.297 1.53-1.43v2.961h2.297v-2.962l1.53 1.431 1.199-1.298-2.73-2.529V594.7l3.062 1.764.832 3.66 1.73-.4-.465-2.03 2.562 1.465 1.132-1.963-2.563-1.465 1.997-.632Z" fill="#bedce8" fill-rule="evenodd" data-name="noun_Snowflake_1823823"/></svg>