<svg xmlns="http://www.w3.org/2000/svg" width="20.797" height="20.797" viewBox="1023 861.08 20.797 20.797"><path d="M1033.399 881.877h1.485a1.49 1.49 0 0 0 1.486-1.485 1.49 1.49 0 0 0-1.486-1.486c-.82 0-1.485-.665-1.485-1.485a1.486 1.486 0 0 1 1.485-1.486h4.457a4.456 4.456 0 0 0 4.456-4.457 10.399 10.399 0 0 0-10.398-10.398A10.399 10.399 0 0 0 1023 871.478c0 5.743 4.656 10.4 10.399 10.4Zm-4.457-16.34a1.486 1.486 0 0 0 1.486 1.485c.82 0 1.485-.666 1.485-1.486a1.486 1.486 0 0 0-1.485-1.485c-.82 0-1.486.665-1.486 1.485Zm8.913 4.456a1.486 1.486 0 0 0 1.486 1.485 1.486 1.486 0 0 0 0-2.97 1.486 1.486 0 0 0-1.486 1.485Zm-1.485-2.971c-.82 0-1.486-.666-1.486-1.486a1.486 1.486 0 0 1 1.486-1.485 1.486 1.486 0 0 1 1.485 1.485c0 .82-.665 1.486-1.485 1.486Zm-8.913 4.456a1.486 1.486 0 0 1 0-2.97 1.486 1.486 0 0 1 1.485 1.485 1.486 1.486 0 0 1-1.485 1.485Z" fill="#bedce8" fill-rule="evenodd" data-name="noun_palette_1918496"/></svg>