<svg xmlns="http://www.w3.org/2000/svg" width="25.375" height="26.491" viewBox="555.068 778.996 25.375 26.491"><path d="m580.427 795.92-2.537-13.971a.956.956 0 0 0-.044-.163c-.093-.249-.27-.334-.435-.185l-8.92 8.103c-.232.21-.34.69-.242 1.07l3.69 14.203a.61.61 0 0 0 .042.117c.102.205.293.233.465.048l7.767-8.335c.174-.187.27-.583.214-.887Zm-8.855 9.152-3.73-14.193c-.09-.342-.368-.675-.646-.787a.586.586 0 0 0-.088-.028l-11.741-2.704c-.261-.06-.372.181-.25.537l4.62 13.427a.895.895 0 0 0 .008.022c.102.272.351.544.58.635a.524.524 0 0 0 .033.012l10.851 3.47c.274.088.435-.076.368-.369a.723.723 0 0 0-.005-.022Zm5.377-24.2-11.546-1.867a1.224 1.224 0 0 0-.835.219l-9.157 7.274c-.212.168-.22.346-.033.424a.455.455 0 0 0 .076.024l11.755 2.672a.84.84 0 0 0 .139.018c.288.015.638-.094.837-.273l8.946-8.08a.526.526 0 0 0 .018-.016c.175-.174.088-.35-.2-.396Zm-12.587 12.391a2.694 2.694 0 0 0 .696 1.13c.237.232.503.402.759.47a.977.977 0 0 0 .1.02c.484.075.756-.292.657-.882a1.82 1.82 0 0 0-.042-.184 2.688 2.688 0 0 0-.708-1.161c-.24-.233-.51-.404-.769-.468a.964.964 0 0 0-.093-.019c-.54-.077-.804.395-.6 1.094Zm11.202-5.075a1.956 1.956 0 0 0 .043.173c.183.604.597.8.973.438.321-.31.522-.941.522-1.555a2.532 2.532 0 0 0-.045-.479 1.997 1.997 0 0 0-.042-.178c-.177-.608-.587-.823-.968-.466a1.069 1.069 0 0 0-.102.11c-.352.439-.523 1.275-.381 1.957Zm-15.954 5.043c-.547-.144-1.176-.83-1.411-1.54a1.972 1.972 0 0 1-.055-.199c-.132-.604.121-.98.622-.857a1.118 1.118 0 0 1 .2.071c.199.092.401.245.585.435a2.81 2.81 0 0 1 .647 1.06c.215.677-.01 1.124-.5 1.048a.86.86 0 0 1-.088-.018Zm14.064 7.646a1.036 1.036 0 0 0 .085-.08 1.558 1.558 0 0 0 .261-.384 2.6 2.6 0 0 0 .254-1.18 2.055 2.055 0 0 0-.05-.412 1.688 1.688 0 0 0-.015-.056c-.167-.627-.618-.807-1.027-.39a1.545 1.545 0 0 0-.27.39c-.234.47-.324 1.11-.2 1.619a1.644 1.644 0 0 0 .015.054c.162.578.567.757.947.44Zm-5.895 1.379a1.307 1.307 0 0 0 .16.061c.573.175.893-.212.71-.872a1.767 1.767 0 0 0-.02-.065c-.186-.585-.699-1.17-1.212-1.399a1.287 1.287 0 0 0-.16-.059 1.118 1.118 0 0 0-.017-.005c-.566-.155-.864.248-.673.904a1.783 1.783 0 0 0 .014.047c.187.578.692 1.157 1.198 1.388Zm-.147-15.039a1.94 1.94 0 0 0 .447-.286c.405-.357.366-.73-.049-.904a1.168 1.168 0 0 0-.219-.066 1.535 1.535 0 0 0-.074-.013c-.601-.09-1.417.133-1.867.521-.41.354-.385.731.027.91a1.14 1.14 0 0 0 .214.066 1.519 1.519 0 0 0 .089.016c.439.068.99-.033 1.432-.244Zm-5.842 13.198a1.221 1.221 0 0 0 .18.073 1.014 1.014 0 0 0 .016.004c.52.15.78-.234.578-.872-.185-.577-.684-1.162-1.17-1.396a1.2 1.2 0 0 0-.183-.072c-.486-.142-.74.179-.62.724a1.671 1.671 0 0 0 .046.168 1.893 1.893 0 0 0 .006.018c.193.56.676 1.12 1.147 1.353Zm8.375-15.419a1.827 1.827 0 0 0 .407-.264 1.315 1.315 0 0 0 .016-.014c.372-.339.316-.686-.097-.845a1.22 1.22 0 0 0-.215-.06 1.585 1.585 0 0 0-.061-.01c-.6-.087-1.406.132-1.84.507-.395.34-.357.7.06.865a1.193 1.193 0 0 0 .21.06c.456.091 1.058-.013 1.52-.239Zm-8.978.86a2.062 2.062 0 0 0 .446-.272 1.495 1.495 0 0 0 .024-.021c.387-.334.372-.677-.004-.835a1.024 1.024 0 0 0-.191-.057 1.384 1.384 0 0 0-.082-.014c-.4-.056-.914.04-1.34.233a2.078 2.078 0 0 0-.441.268 1.493 1.493 0 0 0-.045.038c-.372.327-.363.664.004.823a1 1 0 0 0 .187.058c.414.088.981-.008 1.442-.22Zm11.776-3.233c-.433.382-1.281.604-1.888.493a1.23 1.23 0 0 1-.214-.057c-.413-.155-.46-.495-.084-.821a1.787 1.787 0 0 1 .394-.25c.425-.202.972-.304 1.412-.245a1.642 1.642 0 0 1 .057.009 1.264 1.264 0 0 1 .218.056c.417.151.477.487.105.815Zm-10.66 1.36a1.408 1.408 0 0 0 .078.013c.56.078 1.337-.136 1.774-.497.453-.374.36-.761-.2-.866a1.43 1.43 0 0 0-.074-.011c-.406-.054-.925.044-1.345.24a1.98 1.98 0 0 0-.408.248c-.402.325-.393.667-.008.82a1.04 1.04 0 0 0 .183.053Zm2.273-2.062a1.084 1.084 0 0 0 .187.05 1.46 1.46 0 0 0 .072.012c.415.053.948-.05 1.366-.25a1.844 1.844 0 0 0 .376-.235 1.307 1.307 0 0 0 .033-.029c.397-.35.284-.702-.26-.796a1.468 1.468 0 0 0-.06-.009c-.552-.07-1.309.136-1.731.478a1.362 1.362 0 0 0-.02.016c-.364.307-.34.622.037.763Z" fill="#bedce8" fill-rule="evenodd" data-name="noun_Dice_110906"/></svg>