<svg xmlns="http://www.w3.org/2000/svg" width="25.375" height="26.491" viewBox="0 0 25.375 26.491">
  <path id="noun_Dice_110906" d="M28.777,8.2,17.232,6.331a1.224,1.224,0,0,0-.835.219L7.239,13.823c-.237.188-.218.389.043.448l11.755,2.672a1.238,1.238,0,0,0,.976-.255l8.946-8.079C29.158,8.429,29.075,8.245,28.777,8.2ZM13.461,12.909a2.545,2.545,0,0,1-1.888.493c-.561-.12-.623-.532-.146-.919A2.558,2.558,0,0,1,13.29,12C13.854,12.111,13.933,12.519,13.461,12.909Zm2.522-2.084a2.54,2.54,0,0,1-1.851.484c-.558-.11-.634-.5-.176-.873a2.553,2.553,0,0,1,1.827-.477C16.344,10.063,16.436,10.45,15.983,10.825ZM16.591,9.3c-.556-.1-.644-.473-.2-.83A2.546,2.546,0,0,1,18.178,8c.559.1.663.464.227.825A2.538,2.538,0,0,1,16.591,9.3Zm3.317,4.959a2.552,2.552,0,0,1-1.969.515c-.608-.13-.713-.569-.24-.976a2.566,2.566,0,0,1,1.941-.508C20.251,13.411,20.375,13.844,19.908,14.256Zm2.493-2.2a2.539,2.539,0,0,1-1.927.5c-.606-.119-.724-.534-.271-.926a2.559,2.559,0,0,1,1.9-.5C22.712,11.252,22.849,11.662,22.4,12.057Zm2.391-2.109a2.537,2.537,0,0,1-1.889.493c-.6-.109-.731-.5-.3-.879a2.558,2.558,0,0,1,1.863-.486C25.074,9.181,25.221,9.57,24.791,9.949ZM23.4,32.4,19.671,18.2a1.181,1.181,0,0,0-.735-.815l-11.741-2.7c-.26-.06-.371.181-.249.537l4.619,13.427a1.153,1.153,0,0,0,.621.668l10.851,3.471C23.318,32.879,23.481,32.7,23.4,32.4ZM11.438,20.556a2.477,2.477,0,0,1-1.411-1.539c-.238-.718.013-1.193.567-1.057a2.465,2.465,0,0,1,1.432,1.566C12.254,20.243,11.989,20.7,11.438,20.556ZM13.8,27.813a2.419,2.419,0,0,1-1.334-1.444c-.214-.646.041-1.047.574-.891a2.409,2.409,0,0,1,1.353,1.468C14.6,27.59,14.33,27.975,13.8,27.813Zm3.846-5.625a2.448,2.448,0,0,1-1.454-1.6c-.216-.739.092-1.224.693-1.076a2.439,2.439,0,0,1,1.477,1.629C18.565,21.881,18.242,22.346,17.645,22.188Zm2.122,7.455a2.39,2.39,0,0,1-1.372-1.5c-.193-.662.113-1.067.69-.9a2.374,2.374,0,0,1,1.392,1.522C20.661,29.43,20.34,29.817,19.767,29.643Zm12.488-6.4L29.718,9.274c-.067-.37-.282-.526-.479-.347l-8.919,8.1a1.178,1.178,0,0,0-.243,1.07l3.689,14.2c.08.307.307.381.508.165l7.767-8.335A1.15,1.15,0,0,0,32.255,23.246Zm-6.668,4.877c-.414.434-.884.253-1.047-.413A2.377,2.377,0,0,1,25.01,25.7c.421-.43.886-.226,1.041.446A2.384,2.384,0,0,1,25.587,28.122Zm2.821-12c-.41.4-.865.126-1.016-.611a2.461,2.461,0,0,1,.483-2.067c.416-.39.867-.1,1.011.644A2.478,2.478,0,0,1,28.408,16.124Z" transform="translate(-6.896 -6.321)" fill="#bedce8"/>
</svg>
