<svg xmlns="http://www.w3.org/2000/svg" width="14.909" height="20.492" viewBox="559.747 379.049 14.909 20.492"><path d="M573.707 387.644h-.647v-2.749a5.862 5.862 0 0 0-5.858-5.846 5.862 5.862 0 0 0-5.859 5.846l.006 2.75h-.653a.95.95 0 0 0-.949.949v9.998a.95.95 0 0 0 .949.95h13.01a.95.95 0 0 0 .95-.95v-9.999a.95.95 0 0 0-.95-.949Zm-10.24 0-.005-2.749a3.742 3.742 0 0 1 3.74-3.726 3.74 3.74 0 0 1 3.737 3.726l.002 2.749h-7.474Zm5.116 8.902h-2.763l.564-3.464a1.429 1.429 0 0 1-.61-1.083 1.45 1.45 0 0 1-.003-.09 1.43 1.43 0 0 1 1.43-1.431 1.431 1.431 0 0 1 1.431 1.43 1.42 1.42 0 0 1-.349.934 1.46 1.46 0 0 1-.266.24l.566 3.464Z" fill="#bedce8" fill-rule="evenodd" data-name="noun-lock-1061278-FFFFFF"/></svg>