<svg xmlns="http://www.w3.org/2000/svg" width="27.724" height="27.723" viewBox="553.961 817.413 27.724 27.723"><g data-name="noun_glue_2779339"><path d="m557.159 835.927 11.108-14.708 2.501 2.501-7.169 7.169 1.535 1.534 7.168-7.169 5.577 5.576-14.708 11.11-6.012-6.013Zm12.428-16.456 1.555-2.058 10.543 10.543-2.058 1.555-5.79-5.79-1.535-1.535-2.715-2.715Zm-7.331 23.383-2.288.5-4.226-4.225.502-2.287 6.012 6.012Zm-5.964-1.9 1.85 1.851a14.396 14.396 0 0 1-.033.022c-.207.138-1.35.892-2.297 1.42a17.634 17.634 0 0 1-.559.298c-.714.365-1.227.566-1.286.589a1.366 1.366 0 0 1-.006.002 3.387 3.387 0 0 1 .014-.037c.06-.15.306-.753.723-1.534a17.506 17.506 0 0 1 .153-.28c.582-1.045 1.44-2.33 1.44-2.33Z" fill="#bedce8" fill-rule="evenodd" data-name="Path 1622"/></g></svg>