<svg xmlns="http://www.w3.org/2000/svg" width="22.523" height="25.384"><g data-name="Group 634" clip-path="url(&quot;#a&quot;)"><path d="M3.713 20.228v.061a15.188 15.188 0 0 0 3.563-.676 17.465 17.465 0 0 0 .688 2.264c.515 1.332 1.143 2.335 1.845 2.92a2.27 2.27 0 0 0 1.46.587 2.384 2.384 0 0 0 1.637-.732c.975-.918 1.795-2.665 2.357-5.04 1.292.418 2.639.65 3.997.69a5.654 5.654 0 0 0 1.427-.197 2.414 2.414 0 0 0 1.538-1.085 1.986 1.986 0 0 0 .283-.931c.042-.705-.221-1.544-.775-2.464a1.27 1.27 0 0 0 .268-.77 1.295 1.295 0 0 0-1.294-1.289 1.325 1.325 0 0 0-.493.1 18.048 18.048 0 0 0-.719-.737 22.53 22.53 0 0 0-.258-.247 19.882 19.882 0 0 0 1.385-1.443 12.562 12.562 0 0 0 .867-1.133c.964-1.43 1.27-2.675.852-3.595a1.93 1.93 0 0 0-.095-.182 2.426 2.426 0 0 0-1.54-1.085 10.819 10.819 0 0 0-1.375-.13c-.11-.003-.22-.005-.33-.005a10.832 10.832 0 0 0-3.731.663 17.45 17.45 0 0 0-.689-2.267c-.514-1.332-1.143-2.334-1.846-2.919A2.277 2.277 0 0 0 11.273 0c-.898.07-1.707.57-2.17 1.343a1.258 1.258 0 0 0-.3-.039A1.296 1.296 0 0 0 7.51 2.601c.001.368.161.719.439.961a18.24 18.24 0 0 0-.666 2.227c-2.784-.829-5.07-.911-6.3-.149a2.026 2.026 0 0 0-.703.71c-.67 1.155-.09 2.901 1.624 4.91A19.762 19.762 0 0 0 3.285 12.7a19.581 19.581 0 0 0-1.38 1.438 12.505 12.505 0 0 0-.87 1.132c-.964 1.429-1.27 2.673-.853 3.593a1.93 1.93 0 0 0 .095.181c.14.24.326.448.55.612a1.539 1.539 0 0 0 1.53 1.381 1.559 1.559 0 0 0 .159-.008 1.538 1.538 0 0 0 1.197-.8Zm8.533-3.576a28.104 28.104 0 0 0 .99-.551 41.877 41.877 0 0 0 1.923-1.19c.017-.254.032-.507.043-.763a32.32 32.32 0 0 0 .034-1.48 30.525 30.525 0 0 0-.006-.58 32.768 32.768 0 0 0-.075-1.667 37.883 37.883 0 0 0-1.924-1.185 35.036 35.036 0 0 0-.502-.284 34.846 34.846 0 0 0-1.475-.774 41.316 41.316 0 0 0-.482.248 45.748 45.748 0 0 0-1.48.81 33.428 33.428 0 0 0-1.924 1.185c-.014.206-.026.411-.037.617a32.386 32.386 0 0 0-.04 1.63c0 .782.03 1.531.08 2.247a28.96 28.96 0 0 0 1.9 1.186 32.141 32.141 0 0 0 .543.305 38.698 38.698 0 0 0 1.444.753 39.417 39.417 0 0 0 .988-.507Zm-8.354 2.823.01-.007a1.57 1.57 0 0 0 0-.032 1.539 1.539 0 0 0-1.508-1.538 1.55 1.55 0 0 0-.03 0 1.54 1.54 0 0 0-1.368.831.41.41 0 0 0-.025-.035.292.292 0 0 1-.036-.054c-.49-.84.077-2.31 1.539-4.02.43-.505.89-.986 1.373-1.44a28.985 28.985 0 0 0 2.793 2.162 29.037 29.037 0 0 0 .469 3.482 14.873 14.873 0 0 1-3.217.65Zm17.688-.846h.004a1.7 1.7 0 0 1-1.093.727 10.091 10.091 0 0 1-1.205.111 10.105 10.105 0 0 1-3.875-.639c.224-1.153.378-2.32.463-3.49a29.524 29.524 0 0 0 2.789-2.157 17.54 17.54 0 0 1 .313.296c.23.222.447.444.65.662a1.288 1.288 0 0 0-.196.512c-.07.463.117.944.514 1.235a1.316 1.316 0 0 0 .06.042 1.295 1.295 0 0 0 .706.209 1.198 1.198 0 0 0 .385-.07 6.248 6.248 0 0 1 .335.635c.295.653.386 1.218.264 1.654a1.169 1.169 0 0 1-.114.273ZM8.64 3.848l-.003-.005a.989.989 0 0 0 .073.003.989.989 0 0 0 .073-.003 1.334 1.334 0 0 0 .007 0 1.29 1.29 0 0 0 1.288-1.283 1.283 1.283 0 0 0 0-.007 1.287 1.287 0 0 0-.333-.865c.346-.515.896-.86 1.512-.946 1.26 0 2.446 1.948 3.187 4.942a21.449 21.449 0 0 1 .075.314 29.358 29.358 0 0 0-3.262 1.328A29.107 29.107 0 0 0 7.998 5.99a17 17 0 0 1 .643-2.143Zm12.94 2.857a1.69 1.69 0 0 0-1.093-.727 10.114 10.114 0 0 0-1.2-.11 10.133 10.133 0 0 0-3.89.64 28.94 28.94 0 0 1 .47 3.497c.976.658 1.91 1.376 2.796 2.149.486-.45.946-.928 1.378-1.428a12.521 12.521 0 0 0 .614-.775c.776-1.07 1.155-2.01 1.09-2.708a1.29 1.29 0 0 0-.165-.538ZM11.253 24.596h.005c-1.305 0-2.524-2.085-3.26-5.251a29.45 29.45 0 0 0 3.26-1.335c1.058.509 2.146.952 3.258 1.328a17.702 17.702 0 0 1-.59 2.01c-.738 2.028-1.709 3.248-2.673 3.248ZM2.474 10.724l.008-.002a12.048 12.048 0 0 1-.74-.95C.934 8.609.612 7.612.84 6.929a1.189 1.189 0 0 1 .103-.227c.59-1.027 2.8-1.176 5.838-.302a20.405 20.405 0 0 1 .317.094 29.603 29.603 0 0 0-.457 3.505 28.7 28.7 0 0 0-2.782 2.148 17.466 17.466 0 0 1-1.385-1.423Zm7.91-2.964-.002-.001a29.84 29.84 0 0 0-1.497.812 36.387 36.387 0 0 0-1.443.884c.09-.946.223-1.858.385-2.72a36.577 36.577 0 0 1 1.57.598 26.116 26.116 0 0 1 .987.427Zm1.75 9.815a37.379 37.379 0 0 0 .249-.129 35.013 35.013 0 0 0 1.237-.677 26.922 26.922 0 0 0 1.447-.896 30.03 30.03 0 0 1-.27 2.06 30.074 30.074 0 0 1-.115.653 27.111 27.111 0 0 1-2.548-1.01ZM6.57 14.361h-.004a30.968 30.968 0 0 1-1.645-1.264 24.193 24.193 0 0 1-.504-.429 26.96 26.96 0 0 1 2.149-1.689 35.193 35.193 0 0 0-.042 1.69 27.95 27.95 0 0 0 .004.498 36.924 36.924 0 0 0 .042 1.194Zm5.561-6.598.001-.004a37.607 37.607 0 0 1 1.92-.796 22.515 22.515 0 0 1 .619-.224 26.87 26.87 0 0 1 .306 1.952 29.459 29.459 0 0 1 .079.741 37.991 37.991 0 0 0-1.443-.884 27.147 27.147 0 0 0-1.482-.785Zm3.81 3.217v-.004a29.188 29.188 0 0 1 1.64 1.262 27.334 27.334 0 0 1 .503.427 26.933 26.933 0 0 1-2.14 1.685 36.648 36.648 0 0 0 .043-1.564 30.14 30.14 0 0 0 0-.121 27.396 27.396 0 0 0-.003-.415 35.847 35.847 0 0 0-.044-1.27Zm-5.569 6.595h-.002a33.93 33.93 0 0 1-1.915.79 21.076 21.076 0 0 1-.62.22 26.778 26.778 0 0 1-.385-2.692 32.818 32.818 0 0 0 1.439.884c.492.285.987.544 1.483.798ZM.971 18.694l-.001-.002" fill="#bedce8" fill-rule="evenodd" data-name="Path 1802"/><path d="M9.402 12.62a1.85 1.85 0 1 1 0 .1" fill="#bedce8" fill-rule="evenodd" data-name="Ellipse 154"/></g><defs><clipPath id="a"><path d="M0 0h22.523v25.384H0V0" data-name="Rectangle 421"/></clipPath></defs></svg>