<svg id="Group_635" data-name="Group 635" xmlns="http://www.w3.org/2000/svg" xmlns:xlink="http://www.w3.org/1999/xlink" width="22.523" height="25.384" viewBox="0 0 22.523 25.384">
  <defs>
    <clipPath id="clip-path">
      <rect id="Rectangle_421" data-name="Rectangle 421" width="22.523" height="25.384" fill="none"/>
    </clipPath>
  </defs>
  <g id="Group_634" data-name="Group 634" transform="translate(0 0)" clip-path="url(#clip-path)">
    <path id="Path_1802" data-name="Path 1802" d="M21.734,15.625a1.269,1.269,0,0,0,.268-.77,1.3,1.3,0,0,0-1.295-1.289,1.325,1.325,0,0,0-.492.1q-.45-.49-.978-.985a19.882,19.882,0,0,0,1.385-1.443c1.715-2.008,2.309-3.751,1.624-4.909a2.426,2.426,0,0,0-1.539-1.085,10.828,10.828,0,0,0-5.437.527C14.431,2.22,12.961,0,11.273,0A2.785,2.785,0,0,0,9.1,1.343,1.258,1.258,0,0,0,8.8,1.3,1.3,1.3,0,0,0,7.51,2.6a1.281,1.281,0,0,0,.439.961,18.24,18.24,0,0,0-.666,2.227c-3.463-1.031-6.156-.908-7,.561C-.389,7.5.191,9.251,1.9,11.26A19.762,19.762,0,0,0,3.286,12.7,19.581,19.581,0,0,0,1.9,14.137C.188,16.142-.4,17.885.277,19.043a2.021,2.021,0,0,0,.551.611,1.539,1.539,0,0,0,2.885.573v.062a15.188,15.188,0,0,0,3.563-.677c.839,3.547,2.309,5.772,3.994,5.772s3.14-2.158,3.994-5.772a14.375,14.375,0,0,0,4,.688,5.654,5.654,0,0,0,1.427-.2,2.414,2.414,0,0,0,1.538-1.085c.513-.837.332-2.026-.491-3.395M20.487,5.978a1.69,1.69,0,0,1,1.093.727c.489.839-.077,2.309-1.539,4.02a17.889,17.889,0,0,1-1.379,1.428,28.528,28.528,0,0,0-2.8-2.149,28.94,28.94,0,0,0-.469-3.5,10.13,10.13,0,0,1,5.089-.529m-8.352,11.6c.5-.254.993-.523,1.485-.806s.978-.585,1.447-.9c-.09.946-.223,1.854-.385,2.713a27.111,27.111,0,0,1-2.548-1.011Zm1.1-1.474c-.658.385-1.32.731-1.978,1.058-.658-.327-1.323-.677-1.986-1.058s-1.293-.77-1.9-1.185c-.05-.716-.081-1.465-.081-2.247s.027-1.508.077-2.247q.92-.611,1.924-1.185t1.962-1.058c.646.32,1.3.67,1.978,1.058s1.293.77,1.924,1.185c.05.716.081,1.465.081,2.247s-.027,1.508-.077,2.243c-.628.408-1.262.808-1.924,1.19ZM10.37,17.574c-.866.385-1.716.735-2.535,1.012a26.778,26.778,0,0,1-.385-2.693c.469.3.946.6,1.439.884s.987.543,1.483.8Zm-3.8-3.213c-.77-.554-1.493-1.12-2.149-1.693a26.961,26.961,0,0,1,2.149-1.689c-.027.558-.042,1.124-.042,1.689s.019,1.142.047,1.693Zm3.816-6.6c-.5.254-1,.523-1.5.812s-.973.581-1.443.884c.09-.946.223-1.858.385-2.72.81.289,1.668.617,2.557,1.024Zm1.75,0c.869-.385,1.723-.739,2.539-1.02.166.846.3,1.755.385,2.693-.469-.3-.951-.6-1.443-.884s-.985-.537-1.482-.785Zm3.809,3.217c.77.551,1.489,1.12,2.143,1.689a26.972,26.972,0,0,1-2.14,1.685c.026-.554.042-1.12.042-1.685s-.019-1.139-.047-1.685Zm-7.3-7.132a.993.993,0,0,0,.146,0,1.289,1.289,0,0,0,.961-2.155A2.186,2.186,0,0,1,11.257.742c1.3,0,2.528,2.085,3.262,5.256a29.358,29.358,0,0,0-3.262,1.328A29.107,29.107,0,0,0,8,5.991a17,17,0,0,1,.643-2.143ZM2.482,10.722C1.016,9.01.45,7.541.943,6.7,1.554,5.64,3.9,5.516,7.1,6.494A29.6,29.6,0,0,0,6.641,10a28.7,28.7,0,0,0-2.781,2.149,17.466,17.466,0,0,1-1.385-1.423ZM3.9,19.468h0A1.539,1.539,0,0,0,1,18.729a1,1,0,0,1-.062-.09c-.489-.839.077-2.309,1.539-4.02A18.119,18.119,0,0,1,3.847,13.18,28.985,28.985,0,0,0,6.64,15.342a29.037,29.037,0,0,0,.469,3.482,14.873,14.873,0,0,1-3.217.651ZM11.258,24.6c-1.3,0-2.524-2.085-3.259-5.251a29.45,29.45,0,0,0,3.259-1.335,28.894,28.894,0,0,0,3.259,1.328c-.75,3.2-2.012,5.259-3.263,5.259Zm10.326-5.968a1.7,1.7,0,0,1-1.093.727,10.1,10.1,0,0,1-5.08-.527,29.579,29.579,0,0,0,.463-3.491,29.524,29.524,0,0,0,2.789-2.156c.347.32.671.643.962.958a1.293,1.293,0,0,0,1.085,2,1.2,1.2,0,0,0,.385-.069c.646,1.08.819,1.985.484,2.561Z" transform="translate(0 0)" fill="#bedce8"/>
    <circle id="Ellipse_154" data-name="Ellipse 154" cx="1.85" cy="1.85" r="1.85" transform="translate(9.402 10.819)" fill="#bedce8"/>
  </g>
</svg>
