<svg xmlns="http://www.w3.org/2000/svg" width="24.566" height="25.257" viewBox="1021 739.226 24.566 25.257"><path d="M1022.124 764.482h.002l.195-.005a7.24 7.24 0 0 0 .06-.001l.183-.004c.061-.002.133-.006.214-.008a14.88 14.88 0 0 0 .116-.005c.108-.004.19-.01.212-.016a.022.022 0 0 0 .006-.004.011.011 0 0 0 .002-.004c.003-.005 0-.01 0-.017a.018.018 0 0 1 0-.004l.003-.201a6.433 6.433 0 0 1 .002-.148c.002-.11.008-.242.015-.392a23.592 23.592 0 0 1 .013-.216c.026-.322.061-.712.141-1.143a9.281 9.281 0 0 1 .164-.718 7.426 7.426 0 0 1 .217-.671 9.122 9.122 0 0 1 .137-.323 4.6 4.6 0 0 1 .2-.399.837.837 0 0 1 .019-.032.74.74 0 0 0 .01-.016 21.8 21.8 0 0 0 2.04.55c16.545 3.59 19.178-18.14 19.462-21.139a14.568 14.568 0 0 0 .029-.34c-2.238 6.97-19.912 3.128-23.317 14.854a14.635 14.635 0 0 0-.534 3.229 6.623 6.623 0 0 1 .066-.122 5.518 5.518 0 0 1 .07-.121 6.95 6.95 0 0 1 .573-.842 7.001 7.001 0 0 1 .095-.117c.509-.622 1.158-1.168 1.864-1.62.707-.45 1.476-.801 2.25-1.098a21.905 21.905 0 0 1 1.24-.434 65.622 65.622 0 0 1 1.096-.338 119.761 119.761 0 0 1 1.136-.333 51.253 51.253 0 0 0 1.15-.345 30.535 30.535 0 0 0 1.887-.64 23.004 23.004 0 0 0 .257-.1 18.906 18.906 0 0 0 1.461-.641 16.403 16.403 0 0 0 .453-.231 15.826 15.826 0 0 0 1.043-.61 13.792 13.792 0 0 0 .563-.378c.478-.34.9-.679 1.257-1 .088-.082.175-.16.258-.236a25.617 25.617 0 0 1 .176-.173 24.054 24.054 0 0 0 .056-.056c.077-.071.147-.143.214-.213a19.911 19.911 0 0 1 .191-.197 21.119 21.119 0 0 0 .167-.181c.108-.119.2-.223.277-.313a9.898 9.898 0 0 0 .096-.112 126.129 126.129 0 0 0 .043-.05l.141-.167a16.91 16.91 0 0 0 .004-.003.071.071 0 0 1 .037-.023.07.07 0 0 1 .06.013.07.07 0 0 1 .002.002.071.071 0 0 1 .016.087l-.135.243a52.738 52.738 0 0 0-.006.011 3.875 3.875 0 0 1-.077.138c-.06.104-.136.227-.224.368a47.15 47.15 0 0 1-.127.202 16.377 16.377 0 0 1-.244.36c-.15.212-.32.443-.521.684a14.845 14.845 0 0 1-.495.572 13.292 13.292 0 0 1-1.654 1.514 14.28 14.28 0 0 1-.569.415 15.21 15.21 0 0 1-1.418.879 25.06 25.06 0 0 1-.51.274c-.693.353-1.424.681-2.172.982a69.701 69.701 0 0 1-1.211.471 135.714 135.714 0 0 1-1.046.39 39.282 39.282 0 0 0-2.042.81 26.753 26.753 0 0 0-.13.057 12.557 12.557 0 0 0-1.328.677 10.074 10.074 0 0 0-.549.348 8.21 8.21 0 0 0-.453.344 22.624 22.624 0 0 0-.246.15 8.022 8.022 0 0 0-1.864 1.622c-.255.31-.479.632-.666.958a5.955 5.955 0 0 0-.174.312c-.1.193-.19.387-.271.577a15.372 15.372 0 0 0-.035.08 8.761 8.761 0 0 0-.303.87c-.093.318-.162.62-.216.902a10.928 10.928 0 0 0-.093.568c-.042.299-.067.568-.088.804a30.452 30.452 0 0 0-.017.269c-.01.173-.018.324-.022.45a7.131 7.131 0 0 0-.003.156 31.107 31.107 0 0 1 0 .028l-.003.156a17.761 17.761 0 0 0-.001.046.02.02 0 0 1 0 .005c0 .01-.006.02.007.029.03.01.165.018.327.025a32.205 32.205 0 0 0 .102.004l.086.003a17.782 17.782 0 0 1 .027.001 36.287 36.287 0 0 1 .01 0l.232.006a390.197 390.197 0 0 1 .046.001l.141.004a51.031 51.031 0 0 1 .007 0h.122a3.053 3.053 0 0 0 .016 0Z" fill="#bedce8" fill-rule="evenodd" data-name="Path 1815"/></svg>