<svg xmlns="http://www.w3.org/2000/svg" width="24.077" height="21.077" viewBox="1020.791 139.764 24.077 21.077"><g data-name="Jump to Nucleotide"><g data-name="Group 658"><path d="M1020.791 154.989v5.852h5.852" stroke-linejoin="round" stroke-linecap="round" stroke-width="2" stroke="#bedce8" fill="transparent" data-name="Path 1783"/><path d="M1026.643 139.764h-5.852v5.852" stroke-linejoin="round" stroke-linecap="round" stroke-width="2" stroke="#bedce8" fill="transparent" data-name="Path 1781"/><path d="M1044.867 145.616v-5.852h-5.852" stroke-linejoin="round" stroke-linecap="round" stroke-width="2" stroke="#bedce8" fill="transparent" data-name="Path 1791"/><path d="M1039.016 160.841h5.852v-5.852" stroke-linejoin="round" stroke-linecap="round" stroke-width="2" stroke="#bedce8" fill="transparent" data-name="Path 1792"/></g><g data-name="Group 659"><path d="M1038.993 150.803a5.662 5.662 0 0 1-5.662 5.662 5.663 5.663 0 0 1-5.666-5.662 5.663 5.663 0 0 1 5.666-5.663 5.662 5.662 0 0 1 5.662 5.663Z" stroke-linejoin="round" stroke-linecap="round" stroke="#bedce8" fill="transparent" data-name="Path 1829"/><path d="M1038.097 151.303a4.267 4.267 0 0 1-4.267 4.266 4.267 4.267 0 0 1-4.268-4.266 4.267 4.267 0 0 1 4.268-4.267 4.267 4.267 0 0 1 4.267 4.267Z" fill="#bedce8" fill-rule="evenodd" data-name="Path 1830"/></g></g></svg>