<svg xmlns="http://www.w3.org/2000/svg" width="26.481" height="24.862" viewBox="553.961 660.832 26.481 24.862"><g data-name="Swap Bases"><g data-name="Group 33"><path d="M553.961 673.213a3.636 3.636 0 1 1 0 .1" fill="#bedce8" fill-rule="evenodd" data-name="Ellipse 2"/><path d="M573.172 673.213a3.636 3.636 0 1 1 0 .1" fill="#bedce8" fill-rule="evenodd" data-name="Ellipse 3"/></g><path d="m559.847 666.742 1.697.56a5.754 5.754 0 0 1 5.464-3.954 5.683 5.683 0 0 1 3.026.876 5.966 5.966 0 0 1 .655.476l-2.603 2.603h6.471v-6.471l-2.588 2.588a7.533 7.533 0 0 0-4.43-1.85 7.591 7.591 0 0 0-.53-.019c-3.345 0-6.17 2.179-7.162 5.19Z" fill="#bedce8" fill-rule="evenodd" data-name="Path 973"/><path d="m574.557 679.784-1.697-.561a5.754 5.754 0 0 1-5.464 3.954 5.731 5.731 0 0 1-3.68-1.351l2.602-2.603h-6.47v6.47l2.588-2.587a7.534 7.534 0 0 0 4.43 1.85 7.59 7.59 0 0 0 .53.018 7.544 7.544 0 0 0 7.161-5.19Z" fill="#bedce8" fill-rule="evenodd" data-name="Path 974"/></g></svg>