<svg xmlns="http://www.w3.org/2000/svg" width="21.426" height="17.856" viewBox="1022 262.947 21.426 17.856"><path d="M1031.834 273.665v6.229a.938.938 0 0 1-.065.354.857.857 0 0 1-.196.291.868.868 0 0 1-.615.263 1.104 1.104 0 0 1-.03 0h-8.022a.877.877 0 0 1-.645-.263.878.878 0 0 1-.261-.643.94.94 0 0 1 0-.002v-6.229a.88.88 0 0 1 .26-.645.879.879 0 0 1 .646-.263h8.022a.923.923 0 0 1 .353.066.884.884 0 0 1 .292.197.868.868 0 0 1 .26.633 1.141 1.141 0 0 1 0 .012Zm11.591 0v6.229a.923.923 0 0 1-.07.364.867.867 0 0 1-.193.281.874.874 0 0 1-.315.21.859.859 0 0 1-.307.054h-8.043a.918.918 0 0 1-.32-.054.816.816 0 0 1-.313-.21.884.884 0 0 1-.251-.615 1.16 1.16 0 0 1 0-.03v-6.229a.973.973 0 0 1 .06-.349.865.865 0 0 1 .19-.296.829.829 0 0 1 .599-.263 1.097 1.097 0 0 1 .035 0h8.043a.843.843 0 0 1 .62.26 1.055 1.055 0 0 1 .002.003.868.868 0 0 1 .263.633 1.113 1.113 0 0 1 0 .012Zm-11.591-9.835v6.254a.93.93 0 0 1-.053.32.81.81 0 0 1-.208.314.897.897 0 0 1-.62.249 1.165 1.165 0 0 1-.025 0h-8.022a.906.906 0 0 1-.645-.249.836.836 0 0 1-.26-.598 1.097 1.097 0 0 1-.001-.036v-6.254a.854.854 0 0 1 .249-.61 1.107 1.107 0 0 1 .012-.012.886.886 0 0 1 .645-.261h8.022a.88.88 0 0 1 .645.26.898.898 0 0 1 .196.288.857.857 0 0 1 .065.335Zm11.591 0v6.254a.919.919 0 0 1-.054.32.816.816 0 0 1-.21.314.87.87 0 0 1-.62.249h-8.044a.971.971 0 0 1-.31-.048.825.825 0 0 1-.323-.201.84.84 0 0 1-.25-.569 1.13 1.13 0 0 1-.002-.065v-6.254c0-.24.084-.446.252-.622a.835.835 0 0 1 .598-.26 1.098 1.098 0 0 1 .035-.001h8.043a.85.85 0 0 1 .622.26.907.907 0 0 1 .197.286.847.847 0 0 1 .066.337Z" fill="#bedce8" fill-rule="evenodd" data-name="Path 1817"/></svg>