<svg xmlns="http://www.w3.org/2000/svg" width="21.768" height="21.767" viewBox="1022 660.79 21.768 21.767"><g data-name="Info"><g data-name="Group 196"><g data-name="Group 195"><path d="M1032.884 682.557c6.01 0 10.884-4.872 10.884-10.883 0-6.011-4.873-10.884-10.884-10.884A10.884 10.884 0 0 0 1022 671.674a10.884 10.884 0 0 0 10.884 10.883Zm0-1.978a8.905 8.905 0 0 0 8.905-8.905 8.905 8.905 0 0 0-8.905-8.905 8.905 8.905 0 0 0-8.905 8.905 8.905 8.905 0 0 0 8.905 8.905Zm-1.804-6.044.531-2.287a14.089 14.089 0 0 0 .08-.398 10.596 10.596 0 0 0 .04-.225 3.703 3.703 0 0 0 .036-.28 2.867 2.867 0 0 0 .012-.256c0-.234-.031-.411-.095-.532a.423.423 0 0 0-.053-.08.401.401 0 0 0-.142-.101 1.055 1.055 0 0 0-.427-.071 1.185 1.185 0 0 0-.313.044 1.472 1.472 0 0 0-.11.034.052.052 0 0 1-.014.003c-.127.007-.205-.493-.214-.553a.888.888 0 0 1 0-.006 12.866 12.866 0 0 1 .634-.294 10.513 10.513 0 0 1 .364-.149 2.924 2.924 0 0 1 .457-.136 2.195 2.195 0 0 1 .447-.048c.466 0 .835.125 1.107.375a1.307 1.307 0 0 1 .075.076c.277.3.416.69.416 1.171 0 .1-.01.275-.029.525a4.652 4.652 0 0 1-.048.403 3.693 3.693 0 0 1-.059.287l-.529 2.278a7.232 7.232 0 0 0-.116.628 7.317 7.317 0 0 0-.023.165 3.77 3.77 0 0 0-.027.292 1.652 1.652 0 0 0-.002.075 1.94 1.94 0 0 0 .01.209c.016.14.048.25.097.332a.39.39 0 0 0 .06.078.474.474 0 0 0 .16.1c.095.038.217.06.364.064a1.94 1.94 0 0 0 .055 0 1.088 1.088 0 0 0 .179-.015c.06-.01.124-.025.19-.045a2.04 2.04 0 0 0 .069-.022.065.065 0 0 1 .014-.003c.142-.013.192.496.197.557a.789.789 0 0 1 0 .006 40.182 40.182 0 0 1-.302.144c-.287.135-.525.242-.715.323a1.97 1.97 0 0 1-.466.13 2.704 2.704 0 0 1-.416.03 2.09 2.09 0 0 1-.49-.054 1.398 1.398 0 0 1-.711-.404 1.574 1.574 0 0 1-.415-.923 2.124 2.124 0 0 1-.013-.24 4.988 4.988 0 0 1 .032-.56c.021-.191.056-.407.103-.647Zm3.111-6.51a1.439 1.439 0 0 0 .424-1.048 1.454 1.454 0 0 0-.424-1.051 1.706 1.706 0 0 0-.02-.02 1.369 1.369 0 0 0-1-.416 1.42 1.42 0 0 0-.507.09 1.434 1.434 0 0 0-.519.346 1.45 1.45 0 0 0-.428 1.051 1.434 1.434 0 0 0 .428 1.048 1.73 1.73 0 0 0 .027.026 1.385 1.385 0 0 0 .999.407 1.425 1.425 0 0 0 .475-.078 1.412 1.412 0 0 0 .545-.355Z" fill="#bedce8" fill-rule="evenodd" data-name="Path 1406"/></g></g></g></svg>