<svg xmlns="http://www.w3.org/2000/svg" width="23.999" height="24.827" viewBox="1022.254 418.638 23.999 24.827"><g data-name="noun-rotate-674854-FFFFFF"><path d="M1022.254 436.845h4.965v-18.207h-4.965v18.207Z" fill="#bedce8" fill-rule="evenodd" data-name="Path 1818"/><path d="M1028.047 443.466h18.206V438.5h-18.206v4.965Z" fill="#bedce8" fill-rule="evenodd" data-name="Path 1819"/><path d="m1034.125 430.806 4.735 4.723 4.715-4.723-3.942-.114v-1.808a5.246 5.246 0 0 0-1.504-3.738c-.889-.895-2.116-1.463-3.521-1.539a5.967 5.967 0 0 0-.172-.006l-4.673-.006-.009 1.655 4.665.005a3.742 3.742 0 0 1 2.107.678c.815.585 1.345 1.506 1.438 2.604a4.135 4.135 0 0 1 .014.346v1.814l-3.853.109Z" fill="#bedce8" fill-rule="evenodd" data-name="Path 1820"/></g></svg>