<svg xmlns="http://www.w3.org/2000/svg" width="24.507" height="20.323" viewBox="0 0 24.507 20.323">
  <path id="Subtraction_3" data-name="Subtraction 3" d="M22.414,20.323H2.092A2.094,2.094,0,0,1,0,18.23V5.081A2.094,2.094,0,0,1,2.092,2.989H7.173L8.667,0H15.84l1.494,2.989h5.08a2.094,2.094,0,0,1,2.093,2.092V18.23A2.1,2.1,0,0,1,22.414,20.323ZM12.253,5.08a6.575,6.575,0,1,0,6.574,6.575A6.583,6.583,0,0,0,12.253,5.08Zm8.7-.758a1,1,0,1,0,0,2h1a1,1,0,1,0,0-2Zm-8.7,11.517a4.166,4.166,0,1,1,2.964-1.22A4.161,4.161,0,0,1,12.253,15.84Z" transform="translate(0 0)" fill="#bedce8"/>
</svg>
