<svg xmlns="http://www.w3.org/2000/svg" width="24.507" height="20.323" viewBox="1021 100.677 24.507 20.323"><path d="M1043.414 121h-20.322a2.094 2.094 0 0 1-2.092-2.092v-13.15c0-1.154.938-2.092 2.092-2.092h5.081l1.494-2.989h7.173l1.494 2.99h5.08a2.094 2.094 0 0 1 2.093 2.09v13.15a2.095 2.095 0 0 1-2.093 2.093Zm-10.16-15.242a6.583 6.583 0 0 0-6.576 6.575 6.582 6.582 0 0 0 6.575 6.575 6.582 6.582 0 0 0 6.575-6.575 6.582 6.582 0 0 0-6.574-6.575Zm0 10.76a4.16 4.16 0 0 1-2.964-1.221 4.16 4.16 0 0 1-1.22-2.964 4.16 4.16 0 0 1 1.22-2.964 4.16 4.16 0 0 1 2.964-1.22 4.16 4.16 0 0 1 2.963 1.22 4.16 4.16 0 0 1 1.22 2.964 4.16 4.16 0 0 1-1.22 2.964 4.16 4.16 0 0 1-2.964 1.22Zm8.702-9.518h1c.552 0 1-.449 1-1a1.001 1.001 0 0 0-1-1h-1a1.001 1.001 0 0 0-1 1 1.001 1.001 0 0 0 1 1Z" fill="#bedce8" fill-rule="evenodd" data-name="Subtraction 3"/></svg>