<svg xmlns="http://www.w3.org/2000/svg" width="21.845" height="21.845" viewBox="0 0 21.845 21.845">
  <path id="Preferences" d="M56,780.819a4.82,4.82,0,0,0,4.822,4.819h12.2a4.819,4.819,0,1,0,0-9.637h-12.2A4.819,4.819,0,0,0,56,780.819Zm1.285,0a3.534,3.534,0,1,1,3.534,3.534A3.533,3.533,0,0,1,57.285,780.819ZM56,793.026a4.82,4.82,0,0,0,4.822,4.819h12.2a4.819,4.819,0,1,0,0-9.637h-12.2A4.819,4.819,0,0,0,56,793.026Zm13.492,0a3.534,3.534,0,1,1,3.534,3.534A3.533,3.533,0,0,1,69.492,793.026Z" transform="translate(-56 -776)" fill="#bedce8" fill-rule="evenodd"/>
</svg>
