<svg xmlns="http://www.w3.org/2000/svg" width="21.845" height="21.845" viewBox="556.28 221.155 21.845 21.845"><path d="M561.101 230.793h12.202a4.82 4.82 0 0 0 4.821-4.82 4.82 4.82 0 0 0-4.821-4.818H561.1a4.82 4.82 0 1 0 0 9.638Zm0 12.207h12.202a4.82 4.82 0 0 0 4.821-4.819 4.82 4.82 0 0 0-4.821-4.818H561.1a4.82 4.82 0 0 0-4.821 4.818A4.82 4.82 0 0 0 561.1 243Zm12.205-8.352a3.533 3.533 0 0 0-3.534 3.533 3.534 3.534 0 0 0 3.534 3.534 3.533 3.533 0 0 0 3.533-3.534 3.534 3.534 0 0 0-3.533-3.533Zm-12.208-12.208a3.533 3.533 0 0 0-3.533 3.534 3.533 3.533 0 0 0 3.533 3.534 3.534 3.534 0 0 0 3.534-3.534 3.534 3.534 0 0 0-3.534-3.534Z" fill="#bedce8" fill-rule="evenodd" data-name="Preferences"/></svg>