<svg xmlns="http://www.w3.org/2000/svg" width="23.22" height="23.22" viewBox="1022.643 500.214 23.22 23.22"><path d="M1042.291 500.214h1.786c.987 0 1.787.799 1.787 1.786v1.786a1.786 1.786 0 0 1-1.787 1.786v12.504a1.786 1.786 0 0 1 1.787 1.786v1.786c0 .987-.8 1.786-1.787 1.786h-1.786c-.987 0-1.786-.8-1.786-1.786h-12.503a1.786 1.786 0 0 1-1.786 1.786h-1.787c-.987 0-1.786-.8-1.786-1.786v-1.786c0-.987.8-1.786 1.786-1.786v-12.504a1.786 1.786 0 0 1-1.786-1.786V502c0-.987.8-1.786 1.786-1.786h1.787a1.786 1.786 0 0 1 1.786 1.786h12.503a1.786 1.786 0 0 1 1.786-1.786Zm0 17.862v-5.359h-7.144v7.145h5.358c0-.987.8-1.786 1.786-1.786Zm-16.075-12.504v5.359h7.144v-7.145h-5.358c0 .987-.8 1.786-1.786 1.786Zm14.29-1.786h-5.36v7.145h7.145v-5.359a1.786 1.786 0 0 1-1.786-1.786Zm-12.504 16.076h5.358v-7.145h-7.144v5.359a1.786 1.786 0 0 1 1.786 1.786Zm-3.573-16.076h1.787V502h-1.787v1.786Zm0 17.862h1.787v-1.786h-1.787v1.786Zm17.862-17.862h1.786V502h-1.786v1.786Zm0 17.862h1.786v-1.786h-1.786v1.786Z" fill="#bedce8" fill-rule="evenodd" data-name="noun-grid-4038272-FFFFFF"/></svg>