<svg xmlns="http://www.w3.org/2000/svg" width="24.404" height="20.339" viewBox="555 180.642 24.404 20.339"><g data-name="Group 667" transform="translate(555 180.643)" clip-path="url(&quot;#a&quot;)"><path d="M24.404 1.52v17.296a1.47 1.47 0 0 1-.444 1.072 1.46 1.46 0 0 1-.62.385 1.523 1.523 0 0 1-.447.065H1.55a1.505 1.505 0 0 1-1.078-.443 1.937 1.937 0 0 1-.007-.007 1.513 1.513 0 0 1-.359-.517A1.454 1.454 0 0 1 0 18.816V1.521A1.443 1.443 0 0 1 .45.462 1.841 1.841 0 0 1 .463.448 1.586 1.586 0 0 1 .996.1 1.514 1.514 0 0 1 1.55 0h21.344a1.437 1.437 0 0 1 1.046.428 1.756 1.756 0 0 1 .021.021 1.475 1.475 0 0 1 .444 1.073Zm-2.026.516H2.039V18.3h20.339V2.036Zm-2.04 14.806h-2.687V4.632h2.688v12.21Zm-9.083 0h-2.66V6.565h2.66v10.277Zm4.583 0h-2.69V9.003h2.69v7.839Zm-9.085 0H4.066v-4.806h2.687v4.806Z" fill="#bedce8" fill-rule="evenodd" data-name="Path 1840"/></g><defs><clipPath id="a"><path d="M0 0h24.404v20.339H0V0" data-name="Rectangle 437"/></clipPath></defs></svg>