<svg xmlns="http://www.w3.org/2000/svg" xmlns:xlink="http://www.w3.org/1999/xlink" width="24.404" height="20.339" viewBox="0 0 24.404 20.339">
  <defs>
    <clipPath id="clip-path">
      <rect id="Rectangle_437" data-name="Rectangle 437" width="24.404" height="20.339" fill="#bedce8"/>
    </clipPath>
  </defs>
  <g id="Group_667" data-name="Group 667" transform="translate(0 0.001)">
    <g id="Group_667-2" data-name="Group 667" transform="translate(0 -0.001)" clip-path="url(#clip-path)">
      <path id="Path_1840" data-name="Path 1840" d="M22.893,0A1.44,1.44,0,0,1,23.96.448,1.475,1.475,0,0,1,24.4,1.521v17.3a1.469,1.469,0,0,1-.444,1.073,1.44,1.44,0,0,1-1.067.449H1.549a1.506,1.506,0,0,1-1.085-.449A1.441,1.441,0,0,1,0,18.816V1.521A1.446,1.446,0,0,1,.464.448,1.506,1.506,0,0,1,1.549,0Zm-.516,2.037H2.039V18.3H22.378ZM6.753,16.841H4.066V12.036H6.753Zm4.5,0H8.595V6.565h2.661Zm4.583,0H13.149V9h2.689Zm4.5,0H17.651V4.632h2.688Z" transform="translate(0 0)" fill="#bedce8"/>
    </g>
  </g>
</svg>
