<?xml version="1.0" encoding="UTF-8" standalone="no"?>
<svg width="28.678673" height="27.785591" viewBox="0 0 28.678674 27.785591" xmlns="http://www.w3.org/2000/svg">
  <g id="SVGRepo_iconCarrier-6" transform="matrix(0.04253422,0.01243409,-0.01031484,0.03592229,11.655301,-3.0137543)">
    <g id="g1">
      <path fill="#bedce8" d="m 441.123,301.182 c 0,0 -18.339,0 -33.781,0 -29.613,0 -72.404,0 -72.404,0 -28.19,-3.163 -36.485,-51.044 -22.89,-116.593 8.207,-39.524 24.55,-71.256 24.55,-103.995 C 336.599,36.088 300.511,0 255.996,0 211.49,0 175.402,36.088 175.402,80.594 c 0,32.74 16.352,64.472 24.55,103.995 13.595,65.549 5.3,113.43 -22.89,116.593 0,0 -42.793,0 -72.404,0 -15.442,0 -33.782,0 -33.782,0 -22.562,0 -40.858,18.295 -40.858,40.858 v 97.052 H 481.981 V 342.04 c 0,-22.563 -18.294,-40.858 -40.858,-40.858 z" id="path1-2" />
      <rect x="64.241997" y="471.884" width="383.52499" height="40.116001" id="rect1-9" fill="#bedce8" />
    </g>
  </g>
  <path id="path3" fill="#bedce8" d="m 6.6357619,19.506357 a 3.6381656,3.6381656 0 0 0 -3.6384072,3.638408 3.6381656,3.6381656 0 0 0 0.2574111,1.324183 L 0,27.78559 H 1.4578381 L 1.9157328,27.310369 2.3983787,27.78559 H 4.9378386 L 5.987284,26.716344 a 3.6381656,3.6381656 0 0 0 0.6484779,0.06683 3.6381656,3.6381656 0 0 0 3.6359321,-3.638408 3.6381656,3.6381656 0 0 0 -0.11138,-0.891039 h 1.175676 1.175675 a 3.6381656,3.6381656 0 0 0 -0.111379,0.891039 3.6381656,3.6381656 0 0 0 3.635932,3.638408 3.6381656,3.6381656 0 0 0 0.648479,-0.06683 l 1.049445,1.069246 h 2.53946 l 0.482645,-0.475221 0.457894,0.475221 h 1.457839 l -3.254765,-3.316642 a 3.6381656,3.6381656 0 0 0 0.257411,-1.324183 3.6381656,3.6381656 0 0 0 -3.638408,-3.638408 3.6381656,3.6381656 0 0 0 -2.640938,1.141025 H 11.33599 9.2767012 A 3.6381656,3.6381656 0 0 0 6.6357619,19.506357 Z m 0,2.004836 a 1.6330911,1.6330911 0 0 1 1.6310956,1.633572 1.6330911,1.6330911 0 0 1 -1.6310956,1.633571 1.6330911,1.6330911 0 0 1 -1.6335704,-1.633571 1.6330911,1.6330911 0 0 1 1.6335704,-1.633572 z m 9.4004561,0 a 1.6330911,1.6330911 0 0 1 1.633572,1.633572 1.6330911,1.6330911 0 0 1 -1.633572,1.633571 1.6330911,1.6330911 0 0 1 -1.631095,-1.633571 1.6330911,1.6330911 0 0 1 1.631095,-1.633572 z M 3.4032722,25.812931 4.4304416,26.822774 3.8141401,27.456401 2.7869706,26.446558 Z m 15.8654358,0 0.616301,0.633627 -1.027168,1.009843 -0.616303,-0.633627 z" />
</svg>
