<svg xmlns="http://www.w3.org/2000/svg" width="21.768" height="21.768" viewBox="1022 700.571 21.768 21.768"><g data-name="Group 646"><path d="M1022 711.455a10.897 10.897 0 0 0 10.884 10.884 10.897 10.897 0 0 0 10.884-10.884c0-6-4.882-10.884-10.884-10.884-6.002 0-10.884 4.884-10.884 10.884Zm10.884-9.407c-5.187 0-9.409 4.22-9.409 9.407a9.419 9.419 0 0 0 9.41 9.407 9.418 9.418 0 0 0 9.407-9.407 9.418 9.418 0 0 0-9.408-9.407Z" fill="#bedce8" fill-rule="evenodd" data-name="Path 976"/><path d="M1032.884 718.686c-3.988 0-7.231-3.245-7.231-7.23 0-3.988 3.243-7.232 7.231-7.232a7.24 7.24 0 0 1 7.23 7.231 7.24 7.24 0 0 1-7.23 7.23Zm0-12.984a5.762 5.762 0 0 0-5.756 5.753 5.762 5.762 0 0 0 5.756 5.754 5.762 5.762 0 0 0 5.755-5.754 5.762 5.762 0 0 0-5.755-5.753Z" fill="#bedce8" fill-rule="evenodd" data-name="Path 977"/><path d="M1030.043 711.405a2.84 2.84 0 1 1 0 .1" fill="#bedce8" fill-rule="evenodd" data-name="Ellipse 4"/></g></svg>