<svg xmlns="http://www.w3.org/2000/svg" width="24.06" height="21.485" viewBox="0 0 24.06 21.485">
  <g id="Group_637" data-name="Group 637" transform="translate(-1063.94 -460)">
    <path id="noun-3d-1087130-FFFFFF" d="M83.257,144a1.789,1.789,0,0,0-.512,3.5v3.087l-4.583,2.3a.512.512,0,0,0-.28.456v5.711l-2.719,1.464a1.789,1.789,0,1,0,.416,1.144,1.829,1.829,0,0,0-.008-.208l2.919-1.568,4.5,2.728a.512.512,0,0,0,.528,0l4.5-2.728,2.919,1.568a1.829,1.829,0,0,0-.008.208,1.8,1.8,0,1,0,.416-1.144l-2.719-1.464v-5.711a.512.512,0,0,0-.28-.456l-4.583-2.3V147.5a1.789,1.789,0,0,0-.512-3.5Zm0,1.024a.768.768,0,1,1-.768.768A.76.76,0,0,1,83.257,145.024Zm0,6.463,3.751,1.872-3.751,2.088-3.751-2.088ZM78.906,154.2l3.839,2.135v4.927l-3.839-2.319Zm8.7,0v4.743l-3.839,2.319v-4.927Zm-13.821,6.695a.768.768,0,1,1-.768.768A.76.76,0,0,1,73.787,160.892Zm18.94,0a.768.768,0,1,1-.768.768A.76.76,0,0,1,92.727,160.892Z" transform="translate(991.945 318.033)" fill="#bedce8"/>
    <path id="Subtraction_1" data-name="Subtraction 1" d="M-144.5-167.984a4.505,4.505,0,0,1-4.5-4.5,4.505,4.505,0,0,1,4.5-4.5,4.505,4.505,0,0,1,4.5,4.5A4.505,4.505,0,0,1-144.5-167.984Zm-.986-4.186v2.662h1.974v-2.662h1.974l-2.961-3.289-2.96,3.289Z" transform="translate(1228 636.984)" fill="#bedce8"/>
  </g>
</svg>
