<svg xmlns="http://www.w3.org/2000/svg" width="24.404" height="20.274" viewBox="0 0 24.404 20.274">
  <path id="noun-folder-4737790-FFFFFF" d="M70.809,147.059a2.237,2.237,0,0,0-1.758-.848h-.165v-.988a2.242,2.242,0,0,0-2.237-2.242H61.272l-3.007-2.407a.616.616,0,0,0-.385-.136H49.134a2.242,2.242,0,0,0-2.242,2.242v17.408a.629.629,0,0,0,.62.625H66.984a2.237,2.237,0,0,0,2.184-1.745l2.068-10a2.229,2.229,0,0,0-.426-1.907Zm-22.677-4.38a1,1,0,0,1,1-1h8.536l3.007,2.407a.637.637,0,0,0,.389.136h5.583a1,1,0,0,1,1,1v.988h-16a2.233,2.233,0,0,0-2.184,1.741l-1.311,6.2Z" transform="translate(-46.892 -140.438)" fill="#bedce8"/>
</svg>
