<svg xmlns="http://www.w3.org/2000/svg" width="24.404" height="20.274" viewBox="555 140.804 24.404 20.274"><path d="M577.16 146.578h-.166v-.989a2.241 2.241 0 0 0-.655-1.583 2.241 2.241 0 0 0-1.582-.658h-5.377l-3.007-2.407a.616.616 0 0 0-.384-.137h-8.747a2.242 2.242 0 0 0-1.585.657c-.42.42-.657.99-.657 1.585v17.408a.628.628 0 0 0 .183.439.629.629 0 0 0 .437.185h19.472a2.237 2.237 0 0 0 1.398-.49c.397-.317.674-.76.785-1.255l2.068-10a2.229 2.229 0 0 0 .055-.357c.004-.054.006-.107.006-.16a2.23 2.23 0 0 0-.487-1.39 2.237 2.237 0 0 0-1.753-.848 2.202 2.202 0 0 0-.005 0Zm-19.92-4.533h8.537l3.007 2.407a.637.637 0 0 0 .388.137h5.584a.997.997 0 0 1 .706.293.997.997 0 0 1 .29.703.97.97 0 0 1 0 .004v.989h-15.997a2.2 2.2 0 0 0-.005 0 2.233 2.233 0 0 0-1.393.487 2.233 2.233 0 0 0-.786 1.254l-1.31 6.204-.021-11.477a1.001 1.001 0 0 1 .293-.708 1.001 1.001 0 0 1 .708-.293Z" fill="#bedce8" fill-rule="evenodd" data-name="noun-folder-4737790-FFFFFF"/></svg>