<svg xmlns="http://www.w3.org/2000/svg" width="23.659" height="23.659" viewBox="1022 302.341 23.659 23.659"><g data-name="Group 649"><path d="M1038.909 317.222h-1.069l-.378-.366a8.755 8.755 0 0 0 2.123-5.722 8.792 8.792 0 0 0-8.793-8.793 8.792 8.792 0 0 0-8.792 8.793 8.792 8.792 0 0 0 8.792 8.793 8.742 8.742 0 0 0 4.809-1.436 8.85 8.85 0 0 0 .914-.688l.365.379v1.068l6.764 6.75 2.015-2.015-6.75-6.763Zm-8.117 0a6.08 6.08 0 0 1-6.087-6.088 6.08 6.08 0 0 1 6.087-6.088 6.08 6.08 0 0 1 6.088 6.088 6.08 6.08 0 0 1-6.088 6.088Z" fill="#bedce8" fill-rule="evenodd" data-name="Path 969"/><path d="M1035.555 311.607h-3.909v3.907h-1.302v-3.907h-3.908v-1.304h3.908v-3.907h1.302v3.907h3.909v1.304Z" fill="#bedce8" fill-rule="evenodd" data-name="Path 970"/></g></svg>