<svg xmlns="http://www.w3.org/2000/svg" width="23.66" height="23.659" viewBox="1022 340.231 23.66 23.659"><g data-name="Group 650"><path d="M1038.91 355.111h-1.069l-.379-.365a8.755 8.755 0 0 0 2.124-5.723 8.792 8.792 0 0 0-8.793-8.792 8.793 8.793 0 0 0-8.793 8.792 8.793 8.793 0 0 0 8.793 8.793 8.74 8.74 0 0 0 4.808-1.435 8.834 8.834 0 0 0 .914-.689l.365.38v1.068l6.764 6.75 2.016-2.015-6.75-6.764Zm-8.117 0a6.08 6.08 0 0 1-6.087-6.088 6.08 6.08 0 0 1 6.087-6.087 6.08 6.08 0 0 1 6.087 6.087 6.08 6.08 0 0 1-6.087 6.088Z" fill="#bedce8" fill-rule="evenodd" data-name="Path 971"/><path d="M1035.555 349.825h-9.118v-1.303h9.118v1.303Z" fill="#bedce8" fill-rule="evenodd" data-name="Path 972"/></g></svg>